<?xml version="1.0" encoding="utf-8"?>
<!-- Generator: Adobe Illustrator 23.0.2, SVG Export Plug-In . SVG Version: 6.00 Build 0)  -->
<svg version="1.1" id="Layer_1" xmlns="http://www.w3.org/2000/svg" xmlns:xlink="http://www.w3.org/1999/xlink" x="0px" y="0px"
	 viewBox="0 0 671 310.3" style="enable-background:new 0 0 671 310.3;" xml:space="preserve">
<style type="text/css">
	.st0{fill:none;stroke:#000000;stroke-miterlimit:10;}
	.st1{opacity:0.94;fill:#088FAF;enable-background:new    ;}
	.st2{opacity:0.94;fill:#6BA2B5;enable-background:new    ;}
	.st3{opacity:0.94;fill:#B8E4F2;enable-background:new    ;}
	.st4{fill:#A5D6F2;}
</style>
<rect x="2.8" y="34.3" class="st0" width="664.8" height="26.2"/>
<rect x="2.8" y="93.6" class="st0" width="664.8" height="26.2"/>
<rect x="2.8" y="123.3" class="st0" width="664.8" height="26.2"/>
<rect x="2.8" y="152.9" class="st0" width="664.8" height="26.2"/>
<rect x="2.8" y="182.6" class="st0" width="664.8" height="26.2"/>
<rect x="2.8" y="212.2" class="st0" width="664.8" height="26.2"/>
<rect x="2.8" y="241.9" class="st0" width="664.8" height="26.2"/>
<rect x="2.8" y="271.5" class="st0" width="664.8" height="26.2"/>
<g>
	<path d="M10.9,49.2L10.9,49.2l1.3-0.1c0,0.9,0.2,1.5,1.1,1.5c0.7,0,1.1-0.7,1.1-2.1V47c-0.2,0.4-0.7,0.7-1.4,0.7
		c-1.6,0-2.1-1.1-2.1-2.8c0-1.8,0.7-3.2,2.4-3.2s2.4,1.4,2.4,3.2v3.3c0,1.9-0.6,3.5-2.4,3.5C11.8,51.6,10.9,50.8,10.9,49.2z
		 M14.4,46v-1.4c0-1-0.2-1.8-1.1-1.8c-0.9,0-1.1,0.8-1.1,1.8c0,1.2,0,2.2,1.1,2.2C13.9,46.7,14.2,46.4,14.4,46z"/>
	<path d="M19.7,47.4h2.7v1h-2.7V47.4z"/>
	<path d="M27.8,43.5l-1.7,0.3v-1c0.5-0.1,1.5-0.4,2-1.1h1v9.7h-1.3C27.8,51.5,27.8,43.5,27.8,43.5z"/>
	<path d="M31.2,48.8v-4.2c0-1.7,0.7-2.8,2.4-2.8S36,43,36,44.6v4.2c0,1.7-0.7,2.9-2.4,2.9C31.9,51.6,31.2,50.4,31.2,48.8z
		 M34.7,48.8v-4.2c0-0.9-0.2-1.8-1.1-1.8c-0.9,0-1.1,0.9-1.1,1.8v4.2c0,0.9,0.2,1.8,1.1,1.8S34.7,49.7,34.7,48.8z"/>
</g>
<g>
	<path d="M12.4,102.1c0,0.1-1.7,0.3-1.7,0.3v-1c0.6-0.1,1.5-0.4,2-1.1h1v9.7h-1.3V102.1z"/>
	<path d="M17.1,102.1c0,0.1-1.7,0.3-1.7,0.3v-1c0.5-0.1,1.5-0.4,2-1.1h1v9.7h-1.3C17.1,110.1,17.1,102.1,17.1,102.1z"/>
	<path d="M23.2,106h2.7v1h-2.7V106z"/>
	<path d="M31.2,102.1c0,0.1-1.7,0.3-1.7,0.3v-1c0.5-0.1,1.5-0.4,2-1.1h1v9.7h-1.3C31.2,110.1,31.2,102.1,31.2,102.1z"/>
	<path d="M34.4,109.2l2.5-3.8c0.5-0.9,1-1.4,1-2.5c0-0.9-0.2-1.4-1-1.4c-0.9,0-1.2,0.9-1.2,1.8v0.3h-1.3v-0.3c0-1.7,0.7-2.8,2.4-2.8
		c1.6,0,2.3,0.9,2.3,2.5c0,1.2-0.5,1.9-1.1,2.8l-2.2,3.4H39v1.1h-4.6V109.2L34.4,109.2z"/>
</g>
<g>
	<path d="M12.4,131.1c0,0.1-1.7,0.4-1.7,0.4v-1c0.6-0.1,1.5-0.4,2-1.1h1v9.7h-1.3V131.1z"/>
	<path d="M15.6,138.2l2.5-3.9c0.5-0.9,1-1.4,1-2.5c0-0.9-0.2-1.4-1-1.4c-0.9,0-1.1,0.9-1.1,1.8v0.3h-1.3v-0.3c0-1.7,0.7-2.8,2.4-2.8
		c1.6,0,2.3,0.9,2.3,2.5c0,1.2-0.5,1.9-1.1,2.8l-2.2,3.4h3.1v1.1h-4.6L15.6,138.2L15.6,138.2z"/>
	<path d="M24.2,135h2.7v1h-2.7V135z"/>
	<path d="M32.2,131.1c0,0.1-1.7,0.4-1.7,0.4v-1c0.5-0.1,1.5-0.4,2-1.1h1v9.7h-1.3C32.2,139.1,32.2,131.1,32.2,131.1z"/>
	<path d="M35.4,136.7v-0.3h1.3v0.2c0,0.9,0.2,1.5,1.1,1.5c0.9,0,1.1-0.7,1.1-1.8c0-1-0.3-1.7-1.3-1.8c0,0-0.1,0-0.2,0v-1.3h0.2
		c0.9,0,1.3-0.4,1.3-1.5c0-0.9-0.2-1.4-1.1-1.4c-0.9,0-1.1,0.6-1.1,1.6v0.2h-1.3v-0.3c0-1.6,0.8-2.5,2.4-2.5s2.4,0.9,2.4,2.5
		c0,1.2-0.5,1.9-1.4,2.1c0.9,0.3,1.4,1.1,1.4,2.4c0,1.7-0.7,2.9-2.4,2.9C36.2,139.2,35.4,138.3,35.4,136.7z"/>
</g>
<g>
	<path d="M12.4,160c0,0.1-1.7,0.4-1.7,0.4v-1c0.6-0.1,1.5-0.4,2-1.1h1v9.7h-1.3V160z"/>
	<path d="M15.6,165.7v-0.3h1.3v0.2c0,0.9,0.2,1.5,1.1,1.5s1.1-0.7,1.1-1.8c0-1-0.3-1.7-1.3-1.8c0,0-0.1,0-0.2,0v-1.3h0.2
		c0.9,0,1.3-0.4,1.3-1.5c0-0.9-0.2-1.4-1.1-1.4s-1.1,0.6-1.1,1.6v0.2h-1.3v-0.3c0-1.6,0.8-2.5,2.4-2.5s2.4,0.9,2.4,2.5
		c0,1.2-0.5,1.9-1.4,2.1c0.9,0.3,1.4,1.1,1.4,2.4c0,1.7-0.7,2.9-2.4,2.9C16.4,168.2,15.6,167.2,15.6,165.7z"/>
	<path d="M24.2,164h2.7v1h-2.7V164z"/>
	<path d="M32.2,160c0,0.1-1.7,0.4-1.7,0.4v-1c0.5-0.1,1.5-0.4,2-1.1h1v9.7h-1.3V160z"/>
	<path d="M38.2,165.5h-2.8v-1.3l2.5-5.8h1.5v6h1.1v1.1h-1.1v2.6h-1.2V165.5z M38.2,164.3v-4.4l-1.6,4.4H38.2z"/>
</g>
<g>
	<path d="M12.4,191c0,0.1-1.7,0.4-1.7,0.4v-1c0.6-0.1,1.5-0.4,2-1.1h1v9.7h-1.3V191z"/>
	<path d="M18.4,196.4h-2.8v-1.3l2.5-5.8h1.5v6h1.1v1.1h-1.1v2.6h-1.2C18.4,199,18.4,196.4,18.4,196.4z M18.4,195.3v-4.4l-1.6,4.4
		H18.4z"/>
	<path d="M24.2,194.9h2.7v1h-2.7V194.9z"/>
	<path d="M32.3,191c0,0.1-1.7,0.4-1.7,0.4v-1c0.5-0.1,1.5-0.4,2-1.1h1v9.7h-1.3V191z"/>
	<path d="M35.6,196.3h1.3c0,0.9,0.1,1.8,1.1,1.8s1.1-1,1.1-2.3s-0.1-2.1-1.1-2.1c-0.5,0-0.9,0.4-1.1,0.8h-1.1v-5.2H40v1.3h-3
		l-0.1,2.7c0.3-0.3,0.8-0.5,1.4-0.5c1.6,0,2.1,1.2,2.1,2.9c0,2-0.5,3.5-2.4,3.5C36.2,199.1,35.6,198.1,35.6,196.3z"/>
</g>
<g>
	<path d="M12.4,220c0,0.1-1.7,0.4-1.7,0.4v-1c0.6-0.1,1.5-0.4,2-1.1h1v9.7h-1.3V220z"/>
	<path d="M15.7,225.3H17c0,0.9,0.1,1.8,1.1,1.8s1.1-1,1.1-2.3s-0.1-2.1-1.1-2.1c-0.5,0-0.9,0.4-1.1,0.8h-1.1v-5.2h4.2v1.3h-3
		l-0.1,2.7c0.3-0.3,0.8-0.5,1.4-0.5c1.6,0,2.1,1.2,2.1,2.9c0,2-0.5,3.5-2.4,3.5C16.3,228.1,15.7,227.1,15.7,225.3z"/>
	<path d="M24.1,223.9h2.7v1h-2.7V223.9z"/>
	<path d="M32.2,220c0,0.1-1.7,0.4-1.7,0.4v-1c0.5-0.1,1.5-0.4,2-1.1h1v9.7h-1.3V220z"/>
	<path d="M35.6,224.9v-3.3c0-1.9,0.5-3.4,2.4-3.4c1.5,0,2.3,0.9,2.4,2.4v0.1h-1.3c0-0.9-0.2-1.4-1.1-1.4c-0.7,0-1.1,0.6-1.1,2.1v1.5
		c0.2-0.4,0.7-0.7,1.4-0.7c1.6,0,2.1,1.1,2.1,2.8c0,1.8-0.7,3.2-2.4,3.2C36.3,228.1,35.6,226.7,35.6,224.9z M39.1,225.3
		c0-1.1,0-2.1-1.1-2.1c-0.5,0-0.9,0.3-1.1,0.7v1.4c0,1,0.3,1.8,1.1,1.8C38.8,227.1,39.1,226.2,39.1,225.3z"/>
</g>
<g>
	<path d="M12.4,250.9c0,0.1-1.7,0.4-1.7,0.4v-1c0.6-0.1,1.5-0.4,2-1.1h1v9.7h-1.3V250.9z"/>
	<path d="M15.8,255.9v-3.3c0-1.9,0.6-3.4,2.4-3.4c1.5,0,2.3,0.9,2.4,2.4v0.1h-1.3c0-0.9-0.2-1.4-1.1-1.4c-0.7,0-1.1,0.6-1.1,2.1v1.5
		c0.2-0.4,0.7-0.7,1.4-0.7c1.6,0,2.1,1.1,2.1,2.8c0,1.8-0.7,3.2-2.4,3.2C16.5,259.1,15.8,257.7,15.8,255.9z M19.3,256.2
		c0-1.2,0-2.2-1.1-2.2c-0.5,0-0.9,0.3-1.1,0.7v1.5c0,1,0.3,1.8,1.1,1.8S19.3,257.2,19.3,256.2z"/>
	<path d="M24.5,254.9h2.7v1h-2.7V254.9z"/>
	<path d="M32.5,250.9c0,0.1-1.7,0.4-1.7,0.4v-1c0.5-0.1,1.5-0.4,2-1.1h1v9.7h-1.3V250.9z"/>
	<path d="M38.1,250.3h-2.6v-1h3.9v0.6l-1.8,9.1h-1.2L38.1,250.3z"/>
</g>
<g>
	<path d="M12.4,280.9l-1.7,0.4v-1c0.6-0.1,1.5-0.4,2-1.1h1v9.7h-1.3V280.9z"/>
	<path d="M18,280.2h-2.6v-1h3.9v0.6l-1.8,9.1h-1.2L18,280.2z"/>
	<path d="M23.1,284.9h2.7v1h-2.7V284.9z"/>
	<path d="M31.1,280.9l-1.7,0.4v-1c0.5-0.1,1.5-0.4,2-1.1h1v9.7h-1.3C31.1,288.9,31.1,280.9,31.1,280.9z"/>
	<path d="M34.4,286.2c0-1.3,0.5-1.9,1.2-2.4c-0.7-0.4-1.1-1.1-1.1-2.2c0-1.5,0.7-2.5,2.3-2.5s2.2,1,2.2,2.5c0,1.1-0.4,1.7-1.1,2.2
		c0.7,0.4,1.2,1.1,1.2,2.4c0,1.7-0.7,2.8-2.4,2.8C35.1,289.1,34.4,288,34.4,286.2z M38,286.2c0-0.9-0.3-1.8-1.2-1.8
		s-1.2,0.9-1.2,1.8c0,1,0.2,1.8,1.2,1.8S38,287.2,38,286.2z M37.8,281.6c0-0.8-0.2-1.4-1-1.4s-1,0.6-1,1.4s0.2,1.6,1,1.6
		S37.8,282.4,37.8,281.6z"/>
</g>
<line class="st0" x1="53.8" y1="34.3" x2="53.8" y2="60.5"/>
<line class="st0" x1="53.8" y1="93.6" x2="53.8" y2="119.8"/>
<line class="st0" x1="53.8" y1="123.3" x2="53.8" y2="149.5"/>
<line class="st0" x1="53.8" y1="152.9" x2="53.8" y2="179.1"/>
<line class="st0" x1="53.8" y1="182.6" x2="53.8" y2="208.8"/>
<line class="st0" x1="53.8" y1="212.2" x2="53.8" y2="238.4"/>
<line class="st0" x1="53.8" y1="241.9" x2="53.8" y2="268.1"/>
<line class="st0" x1="53.8" y1="271.5" x2="53.8" y2="297.7"/>
<line class="st0" x1="176.6" y1="34.3" x2="176.6" y2="60.5"/>
<line class="st0" x1="176.6" y1="93.6" x2="176.6" y2="119.8"/>
<line class="st0" x1="176.6" y1="123.3" x2="176.6" y2="149.5"/>
<line class="st0" x1="176.6" y1="152.9" x2="176.6" y2="179.1"/>
<line class="st0" x1="176.6" y1="182.6" x2="176.6" y2="208.8"/>
<line class="st0" x1="176.6" y1="212.2" x2="176.6" y2="238.4"/>
<line class="st0" x1="176.6" y1="241.9" x2="176.6" y2="268.1"/>
<line class="st0" x1="176.6" y1="271.5" x2="176.6" y2="297.7"/>
<line class="st0" x1="299.3" y1="34.3" x2="299.3" y2="60.5"/>
<line class="st0" x1="299.3" y1="93.6" x2="299.3" y2="119.8"/>
<line class="st0" x1="299.3" y1="123.3" x2="299.3" y2="149.5"/>
<line class="st0" x1="299.3" y1="152.9" x2="299.3" y2="179.1"/>
<line class="st0" x1="299.3" y1="182.6" x2="299.3" y2="208.8"/>
<line class="st0" x1="299.3" y1="212.2" x2="299.3" y2="238.4"/>
<line class="st0" x1="299.3" y1="241.9" x2="299.3" y2="268.1"/>
<line class="st0" x1="299.3" y1="271.5" x2="299.3" y2="297.7"/>
<line class="st0" x1="422.1" y1="34.3" x2="422.1" y2="60.5"/>
<line class="st0" x1="422.1" y1="93.6" x2="422.1" y2="119.8"/>
<line class="st0" x1="422.1" y1="123.3" x2="422.1" y2="149.5"/>
<line class="st0" x1="422.1" y1="152.9" x2="422.1" y2="179.1"/>
<line class="st0" x1="422.1" y1="182.6" x2="422.1" y2="208.8"/>
<line class="st0" x1="422.1" y1="212.2" x2="422.1" y2="238.4"/>
<line class="st0" x1="422.1" y1="241.9" x2="422.1" y2="268.1"/>
<line class="st0" x1="422.1" y1="271.5" x2="422.1" y2="297.7"/>
<line class="st0" x1="544.8" y1="34.3" x2="544.8" y2="60.5"/>
<rect x="2.8" y="63.9" class="st0" width="664.8" height="26.2"/>
<g>
	<path d="M12.4,73.1c0,0.1-1.7,0.3-1.7,0.3v-1c0.6-0.1,1.5-0.4,2-1.1h1V81h-1.3V73.1z"/>
	<path d="M15.8,78.4v-4.2c0-1.7,0.7-2.8,2.4-2.8s2.4,1.2,2.4,2.8v4.2c0,1.7-0.7,2.9-2.4,2.9C16.5,81.3,15.8,80.1,15.8,78.4z
		 M19.3,78.4v-4.2c0-0.9-0.2-1.8-1.1-1.8s-1.1,0.9-1.1,1.8v4.2c0,0.9,0.2,1.8,1.1,1.8S19.3,79.3,19.3,78.4z"/>
	<path d="M24.6,77.1h2.7v1h-2.7V77.1z"/>
	<path d="M32.7,73.1c0,0.1-1.7,0.3-1.7,0.3v-1c0.5-0.1,1.5-0.4,2-1.1h1V81h-1.3V73.1z"/>
	<path d="M37.5,73.1c0,0.1-1.7,0.3-1.7,0.3v-1c0.5-0.1,1.5-0.4,2-1.1h1V81h-1.3C37.5,81.2,37.5,73.1,37.5,73.1z"/>
</g>
<line class="st0" x1="53.8" y1="63.9" x2="53.8" y2="90.2"/>
<line class="st0" x1="176.6" y1="63.9" x2="176.6" y2="90.2"/>
<line class="st0" x1="299.3" y1="63.9" x2="299.3" y2="90.2"/>
<line class="st0" x1="422.1" y1="63.9" x2="422.1" y2="90.2"/>
<line class="st0" x1="544.8" y1="63.9" x2="544.8" y2="90.2"/>
<rect x="53.8" y="4.6" class="st0" width="613.8" height="26.2"/>
<line class="st0" x1="176.6" y1="4.6" x2="176.6" y2="30.8"/>
<line class="st0" x1="299.3" y1="4.6" x2="299.3" y2="30.8"/>
<line class="st0" x1="422.1" y1="4.6" x2="422.1" y2="30.8"/>
<line class="st0" x1="544.8" y1="4.6" x2="544.8" y2="30.8"/>
<line class="st0" x1="544.8" y1="93.6" x2="544.8" y2="119.8"/>
<line class="st0" x1="544.8" y1="123.3" x2="544.8" y2="149.5"/>
<line class="st0" x1="544.8" y1="152.9" x2="544.8" y2="179.1"/>
<line class="st0" x1="544.8" y1="182.6" x2="544.8" y2="208.8"/>
<line class="st0" x1="544.8" y1="212.2" x2="544.8" y2="238.4"/>
<line class="st0" x1="544.8" y1="241.9" x2="544.8" y2="268.1"/>
<line class="st0" x1="544.8" y1="271.5" x2="544.8" y2="297.7"/>
<g>
	<path d="M67.4,19.4l1.2-0.3c0.1,1,0.3,2.1,1.4,2.1c0.7,0,1.1-0.4,1.1-1.1c0-0.9-0.4-1.3-1.1-1.9l-1.6-1.4c-0.7-0.6-0.9-1.2-0.9-2.1
		c0-1.4,0.9-2.2,2.3-2.2c1.6,0,2.3,0.8,2.4,2.5L71,15.1c-0.1-1-0.3-1.8-1.3-1.8c-0.7,0-1.1,0.4-1.1,1.1c0,0.6,0.2,0.9,0.6,1.3
		l1.6,1.4c0.7,0.6,1.4,1.5,1.4,2.7c0,1.4-1,2.3-2.3,2.3C68.2,22.2,67.5,21.1,67.4,19.4z"/>
	<path d="M73.1,19.4v-1.6c0-1.8,0.5-2.8,2.1-2.8c1.7,0,2,1.1,2,3v0.6h-2.7V20c0,0.8,0.2,1.2,0.8,1.2c0.6,0,0.7-0.4,0.7-1.1v-0.4h1.2
		V20c0,1.4-0.5,2.2-2,2.2C73.5,22.2,73.1,21.2,73.1,19.4z M75.8,18v-0.6c0-0.9-0.1-1.3-0.7-1.3s-0.8,0.4-0.8,1.6V18H75.8z"/>
	<path d="M77.9,22.9c0-0.7,0.5-1.1,1-1.3c-0.5-0.1-0.7-0.4-0.7-0.7c0-0.5,0.3-0.8,0.8-1.3c-0.5-0.4-0.8-1-0.8-2.1
		c0-1.6,0.7-2.5,1.9-2.5c0.7,0,1.2,0.3,1.4,0.8c0.1-0.1,0.5-0.5,0.9-0.7l0.2-0.1l0.3,0.8c-0.3,0.1-1.1,0.3-1.2,0.4
		c0.1,0.3,0.2,0.9,0.2,1.3c0,1.4-0.5,2.4-1.9,2.4c-0.2,0-0.5,0-0.7-0.1c-0.1,0.1-0.2,0.4-0.2,0.5s0.2,0.3,0.6,0.3l1.1,0.1
		c1.1,0.1,1.6,0.6,1.6,1.7s-0.8,1.7-2.4,1.7C78.8,24.2,77.9,23.9,77.9,22.9z M81.5,22.6c0-0.4-0.2-0.6-0.9-0.7l-1.1-0.1
		c-0.3,0.3-0.5,0.5-0.5,0.9s0.3,0.6,1.2,0.6C81.1,23.2,81.5,23,81.5,22.6z M80.9,17.5c0-1-0.1-1.6-0.8-1.6s-0.8,0.6-0.8,1.6
		c0,0.9,0.1,1.5,0.8,1.5C80.8,19.1,80.9,18.5,80.9,17.5z"/>
	<path d="M83.4,20.8v-5.6h1.3v5.2c0,0.5,0.1,0.8,0.6,0.8c0.3,0,0.6-0.2,0.9-0.4v-5.6h1.3v6.9h-1.3v-0.7c-0.5,0.4-1,0.8-1.7,0.8
		C83.7,22.2,83.4,21.5,83.4,20.8z"/>
	<path d="M88.8,15.2H90v0.7c0.5-0.4,1-0.8,1.7-0.8c0.8,0,1,0.7,1,1.4v5.6h-1.3v-5.2c0-0.5-0.1-0.8-0.6-0.8c-0.3,0-0.6,0.2-0.9,0.4
		v5.6h-1.3v-6.9C88.6,15.2,88.8,15.2,88.8,15.2z"/>
	<path d="M93.9,19.4V18c0-1.6,0.3-3,1.7-3c0.5,0,0.8,0.2,1.2,0.5v-3.2H98V22h-1.3v-0.4c-0.3,0.3-0.7,0.5-1.1,0.5
		C94.5,22.2,93.9,21.4,93.9,19.4z M96.8,20.9v-4.5c-0.2-0.2-0.5-0.3-0.8-0.3c-0.6,0-0.8,0.7-0.8,1.5v2c0,1,0.1,1.7,0.8,1.7
		C96.2,21.2,96.5,21.1,96.8,20.9z"/>
	<path d="M99.2,20.6c0-1.7,1.2-2.2,2.7-2.8v-0.5c0-0.8-0.1-1.2-0.7-1.2c-0.5,0-0.7,0.4-0.7,1v0.4h-1.3c0-1.5,0.7-2.2,2.1-2.2
		s1.9,0.8,1.9,2.2v3.2c0,0.6,0.1,1.2,0.1,1.7h-1.2c-0.1-0.2-0.1-0.7-0.2-1c-0.2,0.5-0.6,1.1-1.4,1.1C99.8,22.2,99.2,21.4,99.2,20.6z
		 M101.9,20.5v-2c-0.8,0.5-1.4,0.8-1.4,1.6c0,0.6,0.2,0.9,0.6,0.9C101.5,21.1,101.8,20.7,101.9,20.5z"/>
	<path d="M104.4,18h2.7v1h-2.7V18z"/>
	<path d="M108.7,16.1h-0.8v-0.9h0.8v-0.4c0-1.3,0.2-2.1,1.5-2.1c0.3,0,0.5,0,0.8,0.1v0.9c-0.1,0-0.3-0.1-0.5-0.1
		c-0.5,0-0.6,0.4-0.6,0.9v0.6h1.1V16h-1v6h-1.3V16.1z"/>
	<path d="M111.6,19.4v-1.6c0-1.8,0.5-2.8,2.1-2.8c1.7,0,2,1.1,2,3v0.6H113V20c0,0.8,0.2,1.2,0.8,1.2c0.6,0,0.7-0.4,0.7-1.1v-0.4h1.2
		V20c0,1.4-0.5,2.2-2,2.2C112,22.2,111.6,21.2,111.6,19.4z M114.4,18v-0.6c0-0.9-0.1-1.3-0.7-1.3s-0.8,0.4-0.8,1.6V18H114.4z"/>
	<path d="M116.9,12.8h1.3v1.3h-1.3V12.8z M116.9,15.2h1.3v6.9h-1.3V15.2z"/>
	<path d="M119.6,15.2h1.3v1c0.5-0.8,1-1.1,1.5-1.1c0.1,0,0.1,0,0.2,0v1.4c-0.2-0.1-0.5-0.1-0.7-0.1c-0.4,0-0.7,0.1-1,0.7v5.1h-1.3
		V15.2z"/>
	<path d="M123.3,20.6c0-1.7,1.2-2.2,2.7-2.8v-0.5c0-0.8-0.1-1.2-0.7-1.2c-0.5,0-0.7,0.4-0.7,1v0.4h-1.3c0-1.5,0.7-2.2,2.1-2.2
		s1.9,0.8,1.9,2.2v3.2c0,0.6,0.1,1.2,0.1,1.7h-1.2c-0.1-0.2-0.1-0.7-0.2-1c-0.2,0.5-0.6,1.1-1.4,1.1
		C123.8,22.2,123.3,21.4,123.3,20.6z M126,20.5v-2c-0.8,0.5-1.4,0.8-1.4,1.6c0,0.6,0.2,0.9,0.6,0.9C125.5,21.1,125.9,20.7,126,20.5z
		"/>
</g>
<g>
	<path d="M203.2,13.4h-1.6v-1h4.6v1h-1.6v8.7h-1.4V13.4L203.2,13.4z"/>
	<path d="M206.7,19.4v-1.6c0-1.8,0.5-2.8,2.1-2.8c1.7,0,2,1.1,2,3v0.6H208V20c0,0.8,0.2,1.2,0.8,1.2s0.7-0.4,0.7-1.1v-0.4h1.2V20
		c0,1.4-0.5,2.2-2,2.2C207.1,22.2,206.7,21.2,206.7,19.4z M209.5,18v-0.6c0-0.9-0.1-1.3-0.7-1.3c-0.6,0-0.8,0.4-0.8,1.6V18H209.5z"
		/>
	<path d="M211.9,15.2h1.3v1c0.5-0.8,1-1.1,1.5-1.1c0.1,0,0.1,0,0.2,0v1.4c-0.2-0.1-0.5-0.1-0.7-0.1c-0.4,0-0.7,0.1-1,0.7v5.1h-1.3
		V15.2L211.9,15.2z"/>
	<path d="M218.4,17.7v-0.4c0-0.9-0.2-1.2-0.7-1.2c-0.6,0-0.8,0.4-0.8,1.6v2.2c0,1.2,0.2,1.5,0.8,1.5s0.7-0.5,0.7-1.2v-0.6h1.2V20
		c0,1.3-0.4,2.1-1.6,2.2v0.6c0.8,0,1.3,0.4,1.3,1c0,0.8-0.7,1.1-1.5,1.1c-0.2,0-0.5,0-0.8-0.1v-0.6c0.2,0.1,0.4,0.1,0.6,0.1
		c0.4,0,0.7-0.1,0.7-0.5s-0.4-0.6-1-0.7v-0.9c-1.4-0.2-1.6-1.2-1.6-2.7v-1.6c0-1.7,0.4-2.8,2-2.8c1.5,0,1.9,0.8,1.9,2.2v0.4
		L218.4,17.7L218.4,17.7z"/>
	<path d="M220.5,20.6c0-1.7,1.2-2.2,2.7-2.8v-0.5c0-0.8-0.1-1.2-0.7-1.2c-0.5,0-0.7,0.4-0.7,1v0.4h-1.3c0-1.5,0.7-2.2,2.1-2.2
		c1.4,0,1.9,0.8,1.9,2.2v3.2c0,0.6,0.1,1.2,0.1,1.7h-1.2c-0.1-0.2-0.1-0.7-0.2-1c-0.2,0.5-0.6,1.1-1.4,1.1
		C221.1,22.2,220.5,21.4,220.5,20.6z M223.3,20.5v-2c-0.8,0.5-1.4,0.8-1.4,1.6c0,0.6,0.2,0.9,0.6,0.9
		C222.8,21.1,223.2,20.7,223.3,20.5z"/>
	<path d="M225.7,18h2.7v1h-2.7V18z"/>
	<path d="M230.1,16.1h-0.8v-0.9h0.8v-0.4c0-1.3,0.2-2.1,1.5-2.1c0.3,0,0.5,0,0.8,0.1v0.9c-0.1,0-0.3-0.1-0.5-0.1
		c-0.5,0-0.6,0.4-0.6,0.9v0.6h1.1V16h-1.1v6H230v-5.9H230.1z"/>
	<path d="M232.9,19.4v-1.6c0-1.8,0.5-2.8,2.1-2.8c1.7,0,2,1.1,2,3v0.6h-2.7V20c0,0.8,0.2,1.2,0.8,1.2s0.7-0.4,0.7-1.1v-0.4h1.2V20
		c0,1.4-0.5,2.2-2,2.2C233.4,22.2,232.9,21.2,232.9,19.4z M235.7,18v-0.6c0-0.9-0.1-1.3-0.7-1.3c-0.6,0-0.8,0.4-0.8,1.6V18H235.7z"
		/>
	<path d="M238.2,12.8h1.3v1.3h-1.3V12.8z M238.2,15.2h1.3v6.9h-1.3V15.2z"/>
	<path d="M240.9,15.2h1.3v1c0.5-0.8,1-1.1,1.5-1.1c0.1,0,0.1,0,0.2,0v1.4c-0.2-0.1-0.5-0.1-0.7-0.1c-0.4,0-0.7,0.1-1,0.7v5.1h-1.3
		V15.2L240.9,15.2z"/>
	<path d="M244.6,20.6c0-1.7,1.2-2.2,2.7-2.8v-0.5c0-0.8-0.1-1.2-0.7-1.2c-0.5,0-0.7,0.4-0.7,1v0.4h-1.3c0-1.5,0.7-2.2,2.1-2.2
		c1.4,0,1.9,0.8,1.9,2.2v3.2c0,0.6,0.1,1.2,0.1,1.7h-1.2c-0.1-0.2-0.1-0.7-0.2-1c-0.2,0.5-0.6,1.1-1.4,1.1
		C245.2,22.2,244.6,21.4,244.6,20.6z M247.3,20.5v-2c-0.8,0.5-1.4,0.8-1.4,1.6c0,0.6,0.2,0.9,0.6,0.9
		C246.9,21.1,247.2,20.7,247.3,20.5z"/>
</g>
<g>
	<path d="M322.8,22.2c-0.1,0-0.1,0-0.2,0c-2,0-2.7-1.2-2.7-3.1v-3.7c0-1.9,0.7-3.1,2.7-3.1s2.7,1.2,2.7,3.1v3.7
		c0,1.4-0.4,2.5-1.4,2.9c0.3,0.4,0.7,0.8,1,1l-0.2,1.1C323.9,23.7,323.2,22.9,322.8,22.2z M323.8,19.4v-4.3c0-1.1-0.2-1.7-1.3-1.7
		s-1.3,0.7-1.3,1.7v4.3c0,1.1,0.2,1.8,1.3,1.8S323.8,20.4,323.8,19.4z"/>
	<path d="M326.4,20.8v-5.6h1.3v5.2c0,0.5,0.1,0.8,0.5,0.8c0.3,0,0.6-0.2,0.9-0.4v-5.6h1.3v6.9h-1.3v-0.7c-0.5,0.4-1,0.8-1.7,0.8
		C326.6,22.2,326.4,21.5,326.4,20.8z"/>
	<path d="M331.6,20.6c0-1.7,1.2-2.2,2.7-2.8v-0.5c0-0.8-0.1-1.2-0.7-1.2c-0.5,0-0.7,0.4-0.7,1v0.4h-1.3c0-1.5,0.7-2.2,2.1-2.2
		s1.9,0.8,1.9,2.2v3.2c0,0.6,0.1,1.2,0.1,1.7h-1.2c0-0.2-0.1-0.7-0.2-1c-0.2,0.5-0.6,1.1-1.4,1.1C332.2,22.2,331.6,21.4,331.6,20.6z
		 M334.3,20.5v-2c-0.8,0.5-1.5,0.8-1.5,1.6c0,0.6,0.2,0.9,0.6,0.9C333.9,21.1,334.2,20.7,334.3,20.5z"/>
	<path d="M336.9,15.2h1.3v1c0.5-0.8,1-1.1,1.5-1.1c0.1,0,0.1,0,0.2,0v1.4c-0.2-0.1-0.5-0.1-0.7-0.1c-0.4,0-0.7,0.1-1,0.7v5.1h-1.3
		V15.2L336.9,15.2z"/>
	<path d="M341,20.5V16h-0.7v-0.8h0.7v-2h1.3v2h1.1V16h-1.1v4.4c0,0.5,0.1,0.8,0.6,0.8c0.1,0,0.3,0,0.5,0v1c-0.3,0-0.6,0.1-0.9,0.1
		C341.5,22.2,341,21.6,341,20.5z"/>
	<path d="M344.2,20.6c0-1.7,1.2-2.2,2.7-2.8v-0.5c0-0.8-0.1-1.2-0.7-1.2c-0.5,0-0.7,0.4-0.7,1v0.4h-1.3c0-1.5,0.7-2.2,2.1-2.2
		s1.9,0.8,1.9,2.2v3.2c0,0.6,0.1,1.2,0.1,1.7h-1.2c0-0.2-0.1-0.7-0.2-1c-0.2,0.5-0.6,1.1-1.4,1.1C344.8,22.2,344.2,21.4,344.2,20.6z
		 M347,20.5v-2c-0.8,0.5-1.5,0.8-1.5,1.6c0,0.6,0.2,0.9,0.6,0.9C346.5,21.1,346.9,20.7,347,20.5z"/>
	<path d="M349.4,18h2.7v1h-2.7V18z"/>
	<path d="M353.8,16.1H353v-0.9h0.8v-0.4c0-1.3,0.2-2.1,1.5-2.1c0.3,0,0.5,0,0.8,0.1v0.9c-0.1,0-0.3-0.1-0.5-0.1
		c-0.5,0-0.6,0.4-0.6,0.9v0.6h1.1V16H355v6h-1.3L353.8,16.1L353.8,16.1z"/>
	<path d="M356.7,19.4v-1.6c0-1.8,0.5-2.8,2-2.8c1.7,0,2,1.1,2,3v0.6H358V20c0,0.8,0.2,1.2,0.8,1.2c0.6,0,0.7-0.4,0.7-1.1v-0.4h1.2
		V20c0,1.4-0.5,2.2-2,2.2C357.1,22.2,356.7,21.2,356.7,19.4z M359.4,18v-0.6c0-0.9-0.1-1.3-0.7-1.3s-0.8,0.4-0.8,1.6V18H359.4z"/>
	<path d="M361.9,12.8h1.3v1.3h-1.3V12.8z M361.9,15.2h1.3v6.9h-1.3V15.2z"/>
	<path d="M364.6,15.2h1.3v1c0.5-0.8,1-1.1,1.5-1.1c0.1,0,0.1,0,0.2,0v1.4c-0.2-0.1-0.5-0.1-0.7-0.1c-0.4,0-0.7,0.1-1,0.7v5.1h-1.3
		V15.2L364.6,15.2z"/>
	<path d="M368.3,20.6c0-1.7,1.2-2.2,2.7-2.8v-0.5c0-0.8-0.1-1.2-0.7-1.2c-0.5,0-0.7,0.4-0.7,1v0.4h-1.3c0-1.5,0.7-2.2,2.1-2.2
		s1.9,0.8,1.9,2.2v3.2c0,0.6,0.1,1.2,0.1,1.7h-1.2c0-0.2-0.1-0.7-0.2-1c-0.2,0.5-0.6,1.1-1.4,1.1C368.9,22.2,368.3,21.4,368.3,20.6z
		 M371,20.5v-2c-0.8,0.5-1.5,0.8-1.5,1.6c0,0.6,0.2,0.9,0.6,0.9C370.6,21.1,370.9,20.7,371,20.5z"/>
</g>
<g>
	<path d="M448.3,22.2c-0.1,0-0.1,0-0.2,0c-2,0-2.7-1.2-2.7-3.1v-3.7c0-1.9,0.7-3.1,2.7-3.1s2.7,1.2,2.7,3.1v3.7
		c0,1.4-0.4,2.5-1.4,2.9c0.3,0.4,0.7,0.8,1,1l-0.2,1.1C449.4,23.7,448.8,22.9,448.3,22.2z M449.4,19.4v-4.3c0-1.1-0.2-1.7-1.3-1.7
		s-1.3,0.7-1.3,1.7v4.3c0,1.1,0.2,1.8,1.3,1.8C449.2,21.1,449.4,20.4,449.4,19.4z"/>
	<path d="M451.9,20.8v-5.6h1.3v5.2c0,0.5,0.1,0.8,0.5,0.8c0.3,0,0.6-0.2,0.9-0.4v-5.6h1.3v6.9h-1.3v-0.7c-0.5,0.4-1,0.8-1.7,0.8
		C452.1,22.2,451.9,21.5,451.9,20.8z"/>
	<path d="M457.3,12.8h1.3v1.3h-1.3V12.8z M457.3,15.2h1.3v6.9h-1.3V15.2z"/>
	<path d="M460,15.2h1.3v0.7c0.5-0.4,1-0.8,1.7-0.8c0.8,0,1,0.7,1,1.4v5.6h-1.3v-5.2c0-0.5-0.1-0.8-0.5-0.8c-0.3,0-0.6,0.2-0.9,0.4
		v5.6H460V15.2L460,15.2z"/>
	<path d="M465.6,20.5V16h-0.7v-0.8h0.7v-2h1.3v2h1.1V16h-1.1v4.4c0,0.5,0.1,0.8,0.6,0.8c0.1,0,0.3,0,0.5,0v1c-0.3,0-0.6,0.1-0.9,0.1
		C466,22.2,465.6,21.6,465.6,20.5z"/>
	<path d="M468.8,20.6c0-1.7,1.2-2.2,2.7-2.8v-0.5c0-0.8-0.1-1.2-0.7-1.2c-0.5,0-0.7,0.4-0.7,1v0.4h-1.3c0-1.5,0.7-2.2,2.1-2.2
		s1.9,0.8,1.9,2.2v3.2c0,0.6,0.1,1.2,0.1,1.7h-1.2c0-0.2-0.1-0.7-0.2-1c-0.2,0.5-0.6,1.1-1.4,1.1C469.4,22.2,468.8,21.4,468.8,20.6z
		 M471.5,20.5v-2c-0.8,0.5-1.5,0.8-1.5,1.6c0,0.6,0.2,0.9,0.6,0.9C471.1,21.1,471.4,20.7,471.5,20.5z"/>
	<path d="M474,18h2.7v1H474V18z"/>
	<path d="M478.3,16.1h-0.8v-0.9h0.8v-0.4c0-1.3,0.2-2.1,1.5-2.1c0.3,0,0.5,0,0.8,0.1v0.9c-0.1,0-0.3-0.1-0.5-0.1
		c-0.5,0-0.6,0.4-0.6,0.9v0.6h1V16h-1v6h-1.3v-5.9H478.3z"/>
	<path d="M481.2,19.4v-1.6c0-1.8,0.5-2.8,2-2.8c1.7,0,2,1.1,2,3v0.6h-2.7V20c0,0.8,0.2,1.2,0.8,1.2c0.6,0,0.7-0.4,0.7-1.1v-0.4h1.2
		V20c0,1.4-0.5,2.2-2,2.2C481.6,22.2,481.2,21.2,481.2,19.4z M484,18v-0.6c0-0.9-0.1-1.3-0.7-1.3s-0.8,0.4-0.8,1.6V18H484z"/>
	<path d="M486.5,12.8h1.3v1.3h-1.3V12.8z M486.5,15.2h1.3v6.9h-1.3V15.2z"/>
	<path d="M489.2,15.2h1.3v1c0.5-0.8,1-1.1,1.5-1.1c0.1,0,0.1,0,0.2,0v1.4c-0.2-0.1-0.5-0.1-0.7-0.1c-0.4,0-0.7,0.1-1,0.7v5.1h-1.3
		V15.2L489.2,15.2z"/>
	<path d="M492.9,20.6c0-1.7,1.2-2.2,2.7-2.8v-0.5c0-0.8-0.1-1.2-0.7-1.2c-0.5,0-0.7,0.4-0.7,1v0.4h-1.3c0-1.5,0.7-2.2,2.1-2.2
		s1.9,0.8,1.9,2.2v3.2c0,0.6,0.1,1.2,0.1,1.7h-1.2c0-0.2-0.1-0.7-0.2-1c-0.2,0.5-0.6,1.1-1.4,1.1C493.5,22.2,492.9,21.4,492.9,20.6z
		 M495.6,20.5v-2c-0.8,0.5-1.5,0.8-1.5,1.6c0,0.6,0.2,0.9,0.6,0.9C495.1,21.1,495.5,20.7,495.6,20.5z"/>
</g>
<g>
	<path d="M574.3,19.4l1.2-0.3c0.1,1,0.3,2.1,1.4,2.1c0.7,0,1.1-0.4,1.1-1.1c0-0.9-0.4-1.3-1.1-1.9l-1.6-1.4
		c-0.7-0.6-0.9-1.2-0.9-2.1c0-1.4,0.9-2.2,2.3-2.2c1.5,0,2.3,0.8,2.5,2.5l-1.2,0.3c-0.1-1-0.3-1.8-1.3-1.8c-0.7,0-1.1,0.4-1.1,1.1
		c0,0.6,0.2,0.9,0.6,1.3l1.6,1.4c0.7,0.6,1.4,1.5,1.4,2.7c0,1.4-1,2.3-2.3,2.3C575.2,22.2,574.4,21.1,574.3,19.4z"/>
	<path d="M580,19.4v-1.6c0-1.8,0.5-2.8,2-2.8c1.7,0,2,1.1,2,3v0.6h-2.7V20c0,0.8,0.2,1.2,0.8,1.2s0.7-0.4,0.7-1.1v-0.4h1.2V20
		c0,1.4-0.5,2.2-2,2.2C580.4,22.2,580,21.2,580,19.4z M582.7,18v-0.6c0-0.9-0.1-1.3-0.7-1.3c-0.6,0-0.8,0.4-0.8,1.6V18H582.7z"/>
	<path d="M586.2,18.5l-1.5-3.3h1.2l1,2.2l0.9-2.2h1.3l-1.6,3.4l1.6,3.5h-1.2l-1.1-2.4l-0.9,2.4h-1.2L586.2,18.5z"/>
	<path d="M590.2,20.5V16h-0.7v-0.8h0.7v-2h1.3v2h1.1V16h-1.1v4.4c0,0.5,0.1,0.8,0.6,0.8c0.1,0,0.3,0,0.5,0v1c-0.3,0-0.6,0.1-0.9,0.1
		C590.6,22.2,590.2,21.6,590.2,20.5z"/>
	<path d="M593.4,20.6c0-1.7,1.2-2.2,2.7-2.8v-0.5c0-0.8-0.1-1.2-0.7-1.2c-0.5,0-0.7,0.4-0.7,1v0.4h-1.3c0-1.5,0.7-2.2,2.1-2.2
		c1.4,0,1.9,0.8,1.9,2.2v3.2c0,0.6,0.1,1.2,0.1,1.7h-1.2c0-0.2-0.1-0.7-0.2-1c-0.2,0.5-0.6,1.1-1.4,1.1
		C594,22.2,593.4,21.4,593.4,20.6z M596.1,20.5v-2c-0.8,0.5-1.5,0.8-1.5,1.6c0,0.6,0.2,0.9,0.6,0.9C595.7,21.1,596,20.7,596.1,20.5z
		"/>
	<path d="M598.6,18h2.7v1h-2.7V18z"/>
	<path d="M602.9,16.1h-0.8v-0.9h0.8v-0.4c0-1.3,0.2-2.1,1.5-2.1c0.3,0,0.5,0,0.8,0.1v0.9c-0.1,0-0.3-0.1-0.5-0.1
		c-0.5,0-0.6,0.4-0.6,0.9v0.6h1.1V16h-1.1v6h-1.3L602.9,16.1L602.9,16.1z"/>
	<path d="M605.8,19.4v-1.6c0-1.8,0.5-2.8,2-2.8c1.7,0,2,1.1,2,3v0.6h-2.7V20c0,0.8,0.2,1.2,0.8,1.2s0.7-0.4,0.7-1.1v-0.4h1.2V20
		c0,1.4-0.5,2.2-2,2.2C606.2,22.2,605.8,21.2,605.8,19.4z M608.6,18v-0.6c0-0.9-0.1-1.3-0.7-1.3c-0.6,0-0.8,0.4-0.8,1.6V18H608.6z"
		/>
	<path d="M611.1,12.8h1.3v1.3h-1.3V12.8z M611.1,15.2h1.3v6.9h-1.3V15.2z"/>
	<path d="M613.8,15.2h1.3v1c0.5-0.8,1-1.1,1.5-1.1c0.1,0,0.1,0,0.2,0v1.4c-0.2-0.1-0.5-0.1-0.7-0.1c-0.4,0-0.7,0.1-1,0.7v5.1h-1.3
		V15.2L613.8,15.2z"/>
	<path d="M617.5,20.6c0-1.7,1.2-2.2,2.7-2.8v-0.5c0-0.8-0.1-1.2-0.7-1.2c-0.5,0-0.7,0.4-0.7,1v0.4h-1.3c0-1.5,0.7-2.2,2.1-2.2
		c1.4,0,1.9,0.8,1.9,2.2v3.2c0,0.6,0.1,1.2,0.1,1.7h-1.2c0-0.2-0.1-0.7-0.2-1c-0.2,0.5-0.6,1.1-1.4,1.1
		C618,22.2,617.5,21.4,617.5,20.6z M620.2,20.5v-2c-0.8,0.5-1.5,0.8-1.5,1.6c0,0.6,0.2,0.9,0.6,0.9
		C619.7,21.1,620.1,20.7,620.2,20.5z"/>
</g>
<rect x="56.9" y="96.7" class="st1" width="116.6" height="48.1"/>
<rect x="56.9" y="186.5" class="st2" width="116.6" height="106.6"/>
<g>
	<path d="M62,108.7l2.3-0.4c0.1,1.6,0.4,2.4,1.3,2.4c0.7,0,0.9-0.5,0.9-1.1c0-1.1-0.6-1.7-1.4-2.5l-1.3-1.2c-1-0.8-1.7-1.8-1.7-3.3
		c0-2.1,1.4-3.3,3.5-3.3c2.6,0,3.1,1.9,3.2,3.6l-2.3,0.3c0-1.2-0.2-2-1-2c-0.6,0-0.9,0.5-0.9,1.1c0,0.9,0.4,1.4,1.2,2.1l1.3,1.2
		c1.1,0.9,2,2.1,2,3.8c0,1.9-1.3,3.2-3.3,3.2C63.3,112.7,62.2,111.5,62,108.7z"/>
	<path d="M70.1,109.5v-3.1c0-2.1,1.1-3.2,3.1-3.2c2.1,0,3,1.2,3,3.3v1.6h-3.7v1.8c0,0.8,0.3,1.1,0.7,1.1s0.7-0.3,0.7-1v-0.9h2.2v0.8
		c0,1.9-1.1,2.9-3,2.9C71.2,112.7,70.1,111.6,70.1,109.5z M73.9,106.9V106c0-0.8-0.2-1.1-0.7-1.1s-0.7,0.3-0.7,1.3v0.7H73.9
		L73.9,106.9z"/>
	<path d="M77.1,110.3l1.7-0.7c0.3,0.9,0.8,1.4,1.4,1.4c0.4,0,0.7-0.2,0.7-0.6c0-0.5-0.3-0.8-1.2-1.5l-0.9-0.7
		c-0.9-0.8-1.5-1.4-1.5-2.6c0-1.5,1.2-2.5,2.8-2.5c1.5,0,2.5,0.9,2.8,2.4l-1.6,0.7c-0.2-0.7-0.6-1.4-1.2-1.4c-0.4,0-0.6,0.3-0.6,0.6
		c0,0.4,0.4,0.8,1.1,1.4l0.9,0.8c0.8,0.7,1.6,1.4,1.6,2.6c0,1.6-1.3,2.5-2.8,2.5C78.7,112.7,77.7,112,77.1,110.3z"/>
	<path d="M83.8,110.3l1.7-0.7c0.3,0.9,0.8,1.4,1.4,1.4c0.4,0,0.7-0.2,0.7-0.6c0-0.5-0.3-0.8-1.2-1.5l-0.9-0.7
		c-0.9-0.8-1.5-1.4-1.5-2.6c0-1.5,1.2-2.5,2.8-2.5c1.5,0,2.5,0.9,2.8,2.4l-1.6,0.7c-0.2-0.7-0.6-1.4-1.2-1.4c-0.4,0-0.6,0.3-0.6,0.6
		c0,0.4,0.4,0.8,1.1,1.4l0.9,0.8c0.8,0.7,1.6,1.4,1.6,2.6c0,1.6-1.3,2.5-2.8,2.5C85.3,112.7,84.3,112,83.8,110.3z"/>
	<path d="M90.6,110.5c0-2.3,2-3,3.8-3.7v-0.9c0-0.6-0.1-1-0.6-1s-0.6,0.4-0.7,0.9l-0.1,0.6l-2.3-0.1c0.1-2.2,1.1-3.2,3.2-3.2
		c1.9,0,2.7,1.1,2.7,2.8v4.3c0,1.1,0.1,1.8,0.2,2.3h-2.2c-0.1-0.5-0.2-1.1-0.2-1.3c-0.2,0.8-0.8,1.5-1.8,1.5
		C91.4,112.7,90.6,111.6,90.6,110.5z M93.2,101c-0.4,0-0.6,0.3-0.6,0.7h-1.2c0-1.2,0.3-2.2,1.4-2.2c0.8,0,1.3,0.7,2,0.7
		c0.4,0,0.5-0.3,0.5-0.6h1.1c0,1-0.1,2.2-1.2,2.2C94.4,101.8,93.8,101,93.2,101z M94.4,110.5V108c-0.9,0.5-1.6,1.1-1.6,2
		c0,0.7,0.3,1,0.7,1C93.9,111,94.2,110.7,94.4,110.5z"/>
	<path d="M98.1,109.6v-3.3c0-2,1.1-3.1,3.1-3.1s3.1,1.1,3.1,3.1v3.3c0,2-1.1,3.1-3.1,3.1S98.1,111.6,98.1,109.6z M102,109.8v-3.7
		c0-0.8-0.1-1.3-0.7-1.3s-0.8,0.6-0.8,1.3v3.7c0,0.8,0.1,1.3,0.8,1.3C101.9,111.1,102,110.5,102,109.8z"/>
	<path d="M62.4,118.8H65v13h-2.6V118.8z"/>
	<path d="M66.8,122.5h2.4v0.9c0.7-0.7,1.4-1.1,2.2-1.1c1.1,0,1.7,0.9,1.7,2.1v7.3h-2.4v-6.9c0-0.5-0.1-0.8-0.6-0.8
		c-0.3,0-0.6,0.1-0.9,0.4v7.3h-2.4C66.8,131.7,66.8,122.5,66.8,122.5z"/>
	<path d="M74.5,129.7c0-2.3,2-3,3.8-3.7v-0.9c0-0.6-0.1-1-0.6-1s-0.6,0.4-0.7,0.9l-0.1,0.6l-2.3-0.1c0.1-2.2,1.1-3.2,3.2-3.2
		c1.9,0,2.7,1.1,2.7,2.8v4.3c0,1.1,0.1,1.8,0.2,2.3h-2.2c-0.1-0.5-0.2-1.1-0.2-1.3c-0.2,0.8-0.8,1.5-1.8,1.5
		C75.2,131.9,74.5,130.8,74.5,129.7z M78.3,129.7v-2.5c-0.9,0.5-1.6,1.1-1.6,2c0,0.7,0.3,1,0.7,1C77.8,130.2,78.1,129.9,78.3,129.7z
		"/>
	<path d="M82.1,129.8v-7.3h2.4v7c0,0.5,0.1,0.8,0.6,0.8c0.3,0,0.5-0.1,0.8-0.4v-7.4h2.4v9.2h-2.4v-0.9c-0.7,0.6-1.4,1-2.2,1
		C82.6,131.9,82.1,131,82.1,129.8z"/>
	<path d="M89.6,133c0-0.9,0.6-1.5,1.4-1.8c-0.8-0.2-1.2-0.7-1.2-1.4s0.4-1.2,1-1.8c-0.6-0.5-0.9-1.3-0.9-2.5c0-2.1,1.1-3.2,3.2-3.2
		c1,0,1.7,0.3,2.1,0.8c0.2-0.3,0.6-0.7,1.2-1l0.3-0.2l0.6,1.2c-0.3,0.1-1.1,0.4-1.5,0.6c0.2,0.4,0.3,1.1,0.3,1.7c0,2-1,3.2-3,3.2
		c-0.5,0-1-0.1-1.4-0.2c-0.1,0.2-0.3,0.4-0.3,0.6c0,0.3,0.2,0.4,0.8,0.5l2.2,0.2c1.6,0.2,2.3,1,2.3,2.4c0,1.7-1.1,2.6-3.8,2.6
		C90.9,134.9,89.6,134.3,89.6,133z M95,132.3c0-0.5-0.3-0.7-1.4-0.8l-1.7-0.2c-0.3,0.3-0.6,0.6-0.6,0.9c0,0.5,0.5,0.8,1.8,0.8
		C94.4,133.1,95,132.9,95,132.3z M93.8,125.6c0-1.2-0.1-1.8-0.8-1.8c-0.7,0-0.8,0.5-0.8,1.8c0,1.2,0.1,1.7,0.8,1.7
		C93.7,127.3,93.8,126.8,93.8,125.6z"/>
	<path d="M97.7,129.8v-7.3h2.4v7c0,0.5,0.1,0.8,0.6,0.8c0.3,0,0.5-0.1,0.8-0.4v-7.4h2.4v9.2h-2.4v-0.9c-0.7,0.6-1.4,1-2.2,1
		C98.2,131.9,97.7,131,97.7,129.8z"/>
	<path d="M105.7,122.5h2.4v1.5c0.6-1.1,1.2-1.6,2-1.6c0.1,0,0.3,0,0.4,0v2.5c-0.2-0.1-0.5-0.2-0.9-0.2c-0.6,0-1.1,0.3-1.5,0.9v6.2
		h-2.4V122.5L105.7,122.5z"/>
	<path d="M111.3,129.7c0-2.3,2-3,3.8-3.7v-0.9c0-0.6-0.1-1-0.6-1s-0.6,0.4-0.7,0.9l-0.1,0.6l-2.3-0.1c0.1-2.2,1.1-3.2,3.2-3.2
		c1.9,0,2.7,1.1,2.7,2.8v4.3c0,1.1,0.1,1.8,0.2,2.3h-2.2c-0.1-0.5-0.2-1.1-0.2-1.3c-0.2,0.8-0.8,1.5-1.8,1.5
		C112.1,131.9,111.3,130.8,111.3,129.7z M115.1,129.7v-2.5c-0.9,0.5-1.6,1.1-1.6,2c0,0.7,0.3,1,0.7,1
		C114.6,130.2,114.9,129.9,115.1,129.7z"/>
	<path d="M119.1,118.8h2.4v13h-2.4V118.8z"/>
</g>
<rect x="179.7" y="245" class="st3" width="116.6" height="48.1"/>
<g>
	<path d="M187,257.9h2.9l2.5,13H190l-0.5-2.9h-2.1l-0.5,2.9h-2.5L187,257.9z M189.2,266.4l-0.8-5.2l-0.8,5.2H189.2z"/>
	<path d="M193.5,268.9v-7.3h2.4v7c0,0.5,0.1,0.8,0.6,0.8c0.3,0,0.5-0.1,0.9-0.4v-7.4h2.4v9.2h-2.4V270c-0.7,0.6-1.4,1-2.2,1
		C194,271,193.5,270,193.5,268.9z"/>
	<path d="M201.5,257.9h2.4v13h-2.4V257.9z"/>
	<path d="M205.4,268.8c0-2.3,2-3,3.8-3.7v-0.9c0-0.6-0.1-1-0.6-1s-0.6,0.4-0.7,0.9l-0.1,0.6l-2.3-0.1c0.1-2.2,1.1-3.2,3.2-3.2
		c1.9,0,2.7,1.1,2.7,2.8v4.3c0,1.1,0.1,1.8,0.2,2.3h-2.2c-0.1-0.5-0.2-1.1-0.2-1.3c-0.2,0.8-0.8,1.5-1.8,1.5
		C206.1,271,205.4,269.8,205.4,268.8z M209.2,268.8v-2.5c-0.9,0.5-1.6,1.1-1.6,2c0,0.7,0.3,1,0.7,1C208.7,269.3,209,269,209.2,268.8
		z"/>
	<path d="M219.1,257.9h2.9l2.5,13h-2.4l-0.5-2.9h-2.1l-0.5,2.9h-2.5L219.1,257.9z M221.4,266.4l-0.8-5.2l-0.8,5.2H221.4z"/>
	<path d="M228.1,270.1v0.7h-2.4v-13h2.4v4.4c0.6-0.5,1.3-0.9,2-0.9c1.5,0,2,1.5,2,2.9v3.6c0,1.8-0.7,3.1-2.1,3.1
		C229.3,271,228.7,270.6,228.1,270.1z M229.7,268v-3.9c0-0.7-0.2-1.2-0.7-1.2c-0.3,0-0.6,0.2-0.9,0.4v5.8c0.2,0.2,0.5,0.3,0.8,0.3
		C229.5,269.4,229.7,268.8,229.7,268z"/>
	<path d="M233.4,267.8v-3.1c0-2.1,1.1-3.2,3.1-3.2c2.1,0,3,1.2,3,3.3v1.6h-3.7v1.8c0,0.8,0.3,1.1,0.7,1.1s0.7-0.3,0.7-1v-0.9h2.2
		v0.8c0,1.9-1.1,2.9-3,2.9C234.5,271,233.4,269.8,233.4,267.8z M237.2,265.2v-0.9c0-0.8-0.2-1.1-0.7-1.1s-0.7,0.3-0.7,1.3v0.7H237.2
		L237.2,265.2z"/>
	<path d="M241,261.6h2.4v1.5c0.6-1.1,1.2-1.6,2-1.6c0.1,0,0.3,0,0.4,0v2.5c-0.2-0.1-0.5-0.2-0.9-0.2c-0.6,0-1.1,0.3-1.5,0.9v6.2H241
		V261.6L241,261.6z"/>
	<path d="M247.2,268.4v-5.2h-0.9v-1.6h0.9v-2.8h2.4v2.8h1.3v1.6h-1.3v5c0,0.6,0.3,0.8,0.8,0.8c0.3,0,0.5,0,0.7-0.1v1.9
		c-0.3,0-0.9,0.1-1.5,0.1C247.7,271,247.2,270,247.2,268.4z"/>
	<path d="M252.1,268.8c0-2.3,2-3,3.8-3.7v-0.9c0-0.6-0.1-1-0.6-1s-0.6,0.4-0.7,0.9l-0.1,0.6l-2.3-0.1c0.1-2.2,1.1-3.2,3.2-3.2
		c1.9,0,2.7,1.1,2.7,2.8v4.3c0,1.1,0.1,1.8,0.2,2.3h-2.2c-0.1-0.5-0.2-1.1-0.2-1.3c-0.2,0.8-0.8,1.5-1.8,1.5
		C252.9,271,252.1,269.8,252.1,268.8z M255.9,268.8v-2.5c-0.9,0.5-1.6,1.1-1.6,2c0,0.7,0.3,1,0.7,1
		C255.4,269.3,255.7,269,255.9,268.8z"/>
	<path d="M265.2,260.4c-0.4,0.2-1.5,0.5-1.9,0.7v-1.8c0.5-0.2,1.9-0.9,2.4-1.4h1.9v13h-2.5L265.2,260.4L265.2,260.4z"/>
</g>
<rect x="302.4" y="254.5" class="st3" width="116.6" height="38.6"/>
<g>
	<path d="M309.8,257.9h2.9l2.5,13h-2.4l-0.5-2.9h-2l-0.5,2.9h-2.5L309.8,257.9z M312,266.4l-0.8-5.2l-0.8,5.2H312z"/>
	<path d="M316.2,268.9v-7.3h2.4v7c0,0.5,0.1,0.8,0.6,0.8c0.3,0,0.5-0.1,0.9-0.4v-7.4h2.4v9.2h-2.4V270c-0.7,0.6-1.4,1-2.2,1
		C316.8,271,316.2,270,316.2,268.9z"/>
	<path d="M324.3,257.9h2.4v13h-2.4V257.9z"/>
	<path d="M328.2,268.8c0-2.3,2-3,3.8-3.7v-0.9c0-0.6-0.1-1-0.6-1s-0.6,0.4-0.7,0.9v0.6l-2.3-0.1c0.1-2.2,1.1-3.2,3.2-3.2
		c1.9,0,2.7,1.1,2.7,2.8v4.3c0,1.1,0.1,1.8,0.2,2.3h-2.2c-0.1-0.5-0.2-1.1-0.2-1.3c-0.2,0.8-0.8,1.5-1.8,1.5
		C328.9,271,328.2,269.8,328.2,268.8z M331.9,268.8v-2.5c-0.9,0.5-1.5,1.1-1.5,2c0,0.7,0.3,1,0.7,1
		C331.5,269.3,331.8,269,331.9,268.8z"/>
	<path d="M341.9,257.9h2.9l2.5,13h-2.4l-0.5-2.9h-2l-0.5,2.9h-2.5L341.9,257.9z M344.1,266.4l-0.8-5.2l-0.8,5.2H344.1z"/>
	<path d="M350.9,270.1v0.7h-2.4v-13h2.4v4.4c0.6-0.5,1.3-0.9,2-0.9c1.5,0,2,1.5,2,2.9v3.6c0,1.8-0.7,3.1-2.1,3.1
		C352.1,271,351.4,270.6,350.9,270.1z M352.4,268v-3.9c0-0.7-0.2-1.2-0.7-1.2c-0.3,0-0.6,0.2-0.9,0.4v5.8c0.2,0.2,0.5,0.3,0.8,0.3
		C352.3,269.4,352.4,268.8,352.4,268z"/>
	<path d="M356.2,267.8v-3.1c0-2.1,1.1-3.2,3.1-3.2c2.1,0,3,1.2,3,3.3v1.6h-3.7v1.8c0,0.8,0.3,1.1,0.7,1.1s0.7-0.3,0.7-1v-0.9h2.2
		v0.8c0,1.9-1.1,2.9-3,2.9C357.2,271,356.2,269.8,356.2,267.8z M360,265.2v-0.9c0-0.8-0.2-1.1-0.7-1.1s-0.7,0.3-0.7,1.3v0.7H360
		L360,265.2z"/>
	<path d="M363.7,261.6h2.4v1.5c0.6-1.1,1.2-1.6,2-1.6c0.1,0,0.3,0,0.4,0v2.5c-0.2-0.1-0.5-0.2-0.9-0.2c-0.6,0-1.1,0.3-1.5,0.9v6.2
		h-2.4V261.6L363.7,261.6z"/>
	<path d="M369.9,268.4v-5.2H369v-1.6h0.9v-2.8h2.5v2.8h1.3v1.6h-1.3v5c0,0.6,0.3,0.8,0.8,0.8c0.3,0,0.5,0,0.7-0.1v1.9
		c-0.3,0-0.9,0.1-1.5,0.1C370.4,271,369.9,270,369.9,268.4z"/>
	<path d="M374.9,268.8c0-2.3,2-3,3.8-3.7v-0.9c0-0.6-0.1-1-0.6-1s-0.6,0.4-0.7,0.9v0.6l-2.3-0.1c0.1-2.2,1.1-3.2,3.2-3.2
		c1.9,0,2.7,1.1,2.7,2.8v4.3c0,1.1,0.1,1.8,0.2,2.3H379c-0.1-0.5-0.2-1.1-0.2-1.3c-0.2,0.8-0.8,1.5-1.8,1.5
		C375.6,271,374.9,269.8,374.9,268.8z M378.7,268.8v-2.5c-0.9,0.5-1.5,1.1-1.5,2c0,0.7,0.3,1,0.7,1
		C378.2,269.3,378.5,269,378.7,268.8z"/>
	<path d="M386.4,269.1l3.1-4.9c0.7-1.1,1.4-2,1.4-3.2c0-0.8-0.3-1.3-0.9-1.3c-1,0-1.2,0.9-1.2,1.9v0.6h-2.4v-0.6c0-2.3,1-4,3.5-4
		c2.3,0,3.4,1.3,3.4,3.4c0,1.6-0.8,2.7-1.7,4l-2.5,3.8h3.8v2h-6.6L386.4,269.1L386.4,269.1z"/>
</g>
<rect x="425.2" y="245" class="st3" width="116.6" height="48.1"/>
<g>
	<path d="M432.5,257.9h2.9l2.5,13h-2.4L435,268h-2l-0.5,2.9H430L432.5,257.9z M434.8,266.4l-0.8-5.2l-0.8,5.2H434.8z"/>
	<path d="M439,268.9v-7.3h2.4v7c0,0.5,0.1,0.8,0.6,0.8c0.3,0,0.5-0.1,0.9-0.4v-7.4h2.4v9.2h-2.4V270c-0.7,0.6-1.4,1-2.2,1
		C439.5,271,439,270,439,268.9z"/>
	<path d="M447,257.9h2.4v13H447V257.9z"/>
	<path d="M450.9,268.8c0-2.3,2-3,3.8-3.7v-0.9c0-0.6-0.1-1-0.6-1s-0.6,0.4-0.7,0.9v0.6l-2.3-0.1c0.1-2.2,1.1-3.2,3.2-3.2
		c1.9,0,2.7,1.1,2.7,2.8v4.3c0,1.1,0.1,1.8,0.2,2.3H455c-0.1-0.5-0.2-1.1-0.2-1.3c-0.2,0.8-0.8,1.5-1.8,1.5
		C451.7,271,450.9,269.8,450.9,268.8z M454.7,268.8v-2.5c-0.9,0.5-1.5,1.1-1.5,2c0,0.7,0.3,1,0.7,1
		C454.2,269.3,454.5,269,454.7,268.8z"/>
	<path d="M464.6,257.9h2.9l2.5,13h-2.4l-0.5-2.9h-2l-0.5,2.9h-2.5L464.6,257.9z M466.9,266.4l-0.8-5.2l-0.8,5.2H466.9z"/>
	<path d="M473.6,270.1v0.7h-2.4v-13h2.4v4.4c0.6-0.5,1.3-0.9,2-0.9c1.5,0,2,1.5,2,2.9v3.6c0,1.8-0.7,3.1-2.1,3.1
		C474.9,271,474.2,270.6,473.6,270.1z M475.2,268v-3.9c0-0.7-0.2-1.2-0.7-1.2c-0.3,0-0.6,0.2-0.9,0.4v5.8c0.2,0.2,0.5,0.3,0.8,0.3
		C475,269.4,475.2,268.8,475.2,268z"/>
	<path d="M478.9,267.8v-3.1c0-2.1,1.1-3.2,3.1-3.2c2.1,0,3,1.2,3,3.3v1.6h-3.7v1.8c0,0.8,0.3,1.1,0.7,1.1s0.7-0.3,0.7-1v-0.9h2.2
		v0.8c0,1.9-1.1,2.9-3,2.9C480,271,478.9,269.8,478.9,267.8z M482.8,265.2v-0.9c0-0.8-0.2-1.1-0.7-1.1s-0.7,0.3-0.7,1.3v0.7H482.8
		L482.8,265.2z"/>
	<path d="M486.5,261.6h2.4v1.5c0.6-1.1,1.2-1.6,2-1.6c0.1,0,0.3,0,0.4,0v2.5c-0.2-0.1-0.5-0.2-0.9-0.2c-0.6,0-1.1,0.3-1.5,0.9v6.2
		h-2.4V261.6L486.5,261.6z"/>
	<path d="M492.7,268.4v-5.2h-0.9v-1.6h0.9v-2.8h2.5v2.8h1.3v1.6h-1.3v5c0,0.6,0.3,0.8,0.8,0.8c0.3,0,0.5,0,0.7-0.1v1.9
		c-0.3,0-0.9,0.1-1.5,0.1C493.2,271,492.7,270,492.7,268.4z"/>
	<path d="M497.6,268.8c0-2.3,2-3,3.8-3.7v-0.9c0-0.6-0.1-1-0.6-1s-0.6,0.4-0.7,0.9v0.6l-2.3-0.1c0.1-2.2,1.1-3.2,3.2-3.2
		c1.9,0,2.7,1.1,2.7,2.8v4.3c0,1.1,0.1,1.8,0.2,2.3h-2.2c-0.1-0.5-0.2-1.1-0.2-1.3c-0.2,0.8-0.8,1.5-1.8,1.5
		C498.4,271,497.6,269.8,497.6,268.8z M501.4,268.8v-2.5c-0.9,0.5-1.5,1.1-1.5,2c0,0.7,0.3,1,0.7,1C501,269.3,501.3,269,501.4,268.8
		z"/>
	<path d="M509.1,267.1v-0.5h2.5v0.4c0,1.3,0.2,1.9,1.1,1.9c0.8,0,1-0.6,1-1.9s-0.3-2-1.4-2.1c0,0-0.3,0-0.4,0v-1.8h0.4
		c1.2,0,1.5-0.6,1.5-1.9c0-1-0.2-1.6-1.1-1.6s-1,0.7-1,1.7v0.6h-2.5v-0.7c0-2.3,1.3-3.5,3.5-3.5s3.5,1.2,3.5,3.5
		c0,1.5-0.7,2.6-1.6,2.8c0.9,0.4,1.6,1.2,1.6,3.1c0,2.4-0.9,4-3.5,4C510,271.1,509.1,269.5,509.1,267.1z"/>
</g>
<g>
	<path d="M62.2,203.1v-4.8c0-2.7,1-4.2,3.8-4.2c2.8,0,3.8,1.6,3.8,4.2v4.9c0,2.6-1,4.2-3.8,4.2C63.1,207.4,62.2,205.8,62.2,203.1z
		 M67.1,203.8v-6.1c0-0.9-0.1-1.7-1.1-1.7s-1.1,0.8-1.1,1.7v6.1c0,0.9,0.1,1.7,1.1,1.7S67.1,204.7,67.1,203.8z"/>
	<path d="M71.8,199.6h-0.9V198h0.9v-0.6c0-1.7,0.5-2.7,2.4-2.7c0.3,0,0.7,0,1.1,0.1v1.7c-0.1,0-0.3-0.1-0.4-0.1
		c-0.4,0-0.7,0.2-0.7,0.9v0.8h4.2v9.2H76v-7.6h-1.8v7.6h-2.4L71.8,199.6L71.8,199.6z M76.1,194.6h2.2v1.8h-2.2V194.6z"/>
	<path d="M79.9,204.2V201c0-2,1-3.2,3.1-3.2c2,0,3,0.9,3,2.8v0.9h-2.3v-0.9c0-0.8-0.2-1.1-0.7-1.1s-0.7,0.3-0.7,1.3v3.6
		c0,1,0.2,1.3,0.7,1.3s0.7-0.3,0.7-1.1v-1.1H86v1c0,1.9-1,2.9-3,2.9C80.9,207.4,79.9,206.2,79.9,204.2z"/>
	<path d="M87.4,194.6h2.4v1.8h-2.4V194.6z M87.4,198h2.4v9.2h-2.4V198z"/>
	<path d="M91.5,198h2.4v0.9c0.7-0.7,1.4-1.1,2.2-1.1c1.1,0,1.7,0.9,1.7,2.1v7.3h-2.4v-6.9c0-0.5-0.1-0.8-0.6-0.8
		c-0.3,0-0.6,0.1-0.9,0.4v7.3h-2.4C91.5,207.2,91.5,198,91.5,198z"/>
	<path d="M99.1,205.1c0-2.3,2-3,3.8-3.7v-0.9c0-0.6-0.1-1-0.6-1s-0.6,0.4-0.7,0.9l-0.1,0.6l-2.3-0.1c0.1-2.2,1.1-3.2,3.2-3.2
		c1.9,0,2.7,1.1,2.7,2.8v4.3c0,1.1,0.1,1.8,0.2,2.3h-2.2c-0.1-0.5-0.2-1.1-0.2-1.3c-0.2,0.8-0.8,1.5-1.8,1.5
		C99.9,207.4,99.1,206.2,99.1,205.1z M102.9,205.1v-2.5c-0.9,0.5-1.6,1.1-1.6,2c0,0.7,0.3,1,0.7,1
		C102.4,205.7,102.7,205.4,102.9,205.1z"/>
	<path d="M106.3,205l1.7-0.7c0.3,0.9,0.8,1.4,1.4,1.4c0.4,0,0.7-0.2,0.7-0.6c0-0.5-0.3-0.8-1.2-1.5l-0.9-0.7
		c-0.9-0.8-1.5-1.4-1.5-2.6c0-1.5,1.2-2.5,2.8-2.5c1.5,0,2.5,0.9,2.8,2.4l-1.6,0.7c-0.2-0.7-0.6-1.4-1.2-1.4c-0.4,0-0.6,0.3-0.6,0.6
		c0,0.4,0.4,0.8,1.1,1.4l0.9,0.8c0.8,0.7,1.6,1.4,1.6,2.6c0,1.6-1.3,2.5-2.8,2.5C107.9,207.4,106.9,206.6,106.3,205z"/>
</g>
<rect x="179.7" y="38" class="st2" width="116.6" height="108.4"/>
<g>
	<path d="M184.9,54.9V50c0-2.7,1-4.2,3.8-4.2c2.9,0,3.8,1.6,3.8,4.2v4.8c0,2.6-1,4.2-3.8,4.2C185.9,59.1,184.9,57.5,184.9,54.9z
		 M189.9,55.5v-6.1c0-0.9-0.1-1.7-1.1-1.7s-1.1,0.8-1.1,1.7v6.1c0,0.9,0.1,1.7,1.1,1.7C189.7,57.2,189.9,56.4,189.9,55.5z"/>
	<path d="M194.5,51.4h-0.9v-1.7h0.9v-0.6c0-1.7,0.5-2.7,2.4-2.7c0.3,0,0.7,0,1.1,0.1v1.7c-0.1,0-0.3,0-0.4,0c-0.4,0-0.7,0.2-0.7,0.9
		v0.8h4.2v9.2h-2.4v-7.6h-1.8v7.6h-2.4L194.5,51.4L194.5,51.4z M198.9,46.4h2.2v1.8h-2.2V46.4z"/>
	<path d="M202.6,55.9v-3.1c0-2,1-3.2,3.1-3.2c2,0,3,0.9,3,2.8v0.9h-2.3v-1c0-0.8-0.2-1.1-0.7-1.1s-0.7,0.3-0.7,1.3v3.7
		c0,1,0.2,1.3,0.7,1.3s0.7-0.3,0.7-1.1v-1.1h2.3v1c0,1.9-1,2.8-3,2.8C203.6,59.1,202.6,57.9,202.6,55.9z"/>
	<path d="M210.1,46.4h2.4v1.8h-2.4V46.4z M210.1,49.7h2.4V59h-2.4V49.7z"/>
	<path d="M214.2,49.7h2.4v0.9c0.7-0.7,1.4-1.1,2.2-1.1c1.1,0,1.6,0.9,1.6,2.1V59H218v-7c0-0.5-0.1-0.8-0.6-0.8
		c-0.3,0-0.6,0.1-0.9,0.4v7.3h-2.4L214.2,49.7L214.2,49.7z"/>
	<path d="M221.9,56.9c0-2.3,2-3,3.8-3.7v-0.9c0-0.6-0.1-1-0.6-1s-0.6,0.4-0.7,0.9l-0.1,0.6l-2.3-0.1c0.1-2.2,1.1-3.2,3.2-3.2
		c1.9,0,2.7,1.1,2.7,2.8v4.3c0,1.1,0.1,1.8,0.2,2.3H226c-0.1-0.5-0.2-1.1-0.2-1.3c-0.2,0.8-0.8,1.5-1.8,1.5
		C222.6,59.1,221.9,58,221.9,56.9z M225.7,56.9v-2.5c-0.9,0.5-1.6,1.1-1.6,2c0,0.7,0.3,1,0.7,1C225.2,57.4,225.5,57.1,225.7,56.9z"
		/>
	<path d="M229.1,56.7l1.7-0.7c0.3,0.9,0.8,1.4,1.4,1.4c0.4,0,0.7-0.2,0.7-0.6c0-0.5-0.3-0.8-1.1-1.5l-0.9-0.7
		c-0.9-0.8-1.5-1.4-1.5-2.6c0-1.5,1.2-2.5,2.8-2.5c1.5,0,2.5,0.9,2.9,2.4l-1.6,0.7c-0.2-0.7-0.6-1.4-1.2-1.4c-0.4,0-0.6,0.3-0.6,0.6
		c0,0.4,0.4,0.8,1.1,1.4l0.9,0.8c0.8,0.7,1.6,1.4,1.6,2.6c0,1.6-1.3,2.5-2.8,2.5C230.7,59.1,229.6,58.4,229.1,56.7z"/>
</g>
<rect x="302.4" y="38" class="st2" width="116.6" height="108.4"/>
<g>
	<path d="M307.7,54.9V50c0-2.7,1-4.2,3.8-4.2c2.9,0,3.8,1.6,3.8,4.2v4.8c0,2.6-1,4.2-3.8,4.2C308.6,59.1,307.7,57.5,307.7,54.9z
		 M312.6,55.5v-6.1c0-0.9-0.1-1.7-1.1-1.7s-1.1,0.8-1.1,1.7v6.1c0,0.9,0.1,1.7,1.1,1.7S312.6,56.4,312.6,55.5z"/>
	<path d="M317.3,51.4h-0.9v-1.7h0.9v-0.6c0-1.7,0.5-2.7,2.4-2.7c0.3,0,0.7,0,1.1,0.1v1.7c-0.1,0-0.3,0-0.4,0c-0.4,0-0.7,0.2-0.7,0.9
		v0.8h4.2v9.2h-2.4v-7.6h-1.8v7.6h-2.4L317.3,51.4L317.3,51.4z M321.6,46.4h2.2v1.8h-2.2V46.4z"/>
	<path d="M325.4,55.9v-3.1c0-2,1-3.2,3.1-3.2c2,0,3,0.9,3,2.8v0.9h-2.3v-1c0-0.8-0.2-1.1-0.7-1.1s-0.7,0.3-0.7,1.3v3.7
		c0,1,0.2,1.3,0.7,1.3s0.7-0.3,0.7-1.1v-1.1h2.3v1c0,1.9-1,2.8-3,2.8C326.4,59.1,325.4,57.9,325.4,55.9z"/>
	<path d="M332.9,46.4h2.4v1.8h-2.4V46.4z M332.9,49.7h2.4V59h-2.4V49.7z"/>
	<path d="M337,49.7h2.4v0.9c0.7-0.7,1.4-1.1,2.2-1.1c1.1,0,1.6,0.9,1.6,2.1V59h-2.4v-7c0-0.5-0.1-0.8-0.6-0.8
		c-0.3,0-0.6,0.1-0.9,0.4v7.3H337V49.7L337,49.7z"/>
	<path d="M344.6,56.9c0-2.3,2-3,3.8-3.7v-0.9c0-0.6-0.1-1-0.6-1s-0.6,0.4-0.7,0.9v0.6l-2.3-0.1c0.1-2.2,1.1-3.2,3.2-3.2
		c1.9,0,2.7,1.1,2.7,2.8v4.3c0,1.1,0.1,1.8,0.2,2.3h-2.2c-0.1-0.5-0.2-1.1-0.2-1.3c-0.2,0.8-0.8,1.5-1.8,1.5
		C345.4,59.1,344.6,58,344.6,56.9z M348.4,56.9v-2.5c-0.9,0.5-1.5,1.1-1.5,2c0,0.7,0.3,1,0.7,1C348,57.4,348.3,57.1,348.4,56.9z"/>
	<path d="M351.8,56.7l1.7-0.7c0.3,0.9,0.8,1.4,1.4,1.4c0.5,0,0.7-0.2,0.7-0.6c0-0.5-0.3-0.8-1.1-1.5l-0.9-0.7
		c-0.9-0.8-1.5-1.4-1.5-2.6c0-1.5,1.2-2.5,2.8-2.5c1.5,0,2.5,0.9,2.9,2.4l-1.6,0.7c-0.2-0.7-0.6-1.4-1.2-1.4c-0.4,0-0.6,0.3-0.6,0.6
		c0,0.4,0.4,0.8,1.1,1.4l0.9,0.8c0.8,0.7,1.6,1.4,1.6,2.6c0,1.6-1.3,2.5-2.8,2.5C353.4,59.1,352.4,58.4,351.8,56.7z"/>
</g>
<rect x="425.2" y="38" class="st2" width="116.6" height="108.4"/>
<g>
	<path d="M430.4,54.9V50c0-2.7,1-4.2,3.8-4.2c2.9,0,3.8,1.6,3.8,4.2v4.8c0,2.6-1,4.2-3.8,4.2C431.4,59.1,430.4,57.5,430.4,54.9z
		 M435.4,55.5v-6.1c0-0.9-0.1-1.7-1.1-1.7s-1.1,0.8-1.1,1.7v6.1c0,0.9,0.1,1.7,1.1,1.7S435.4,56.4,435.4,55.5z"/>
	<path d="M440,51.4h-0.9v-1.7h0.9v-0.6c0-1.7,0.5-2.7,2.4-2.7c0.3,0,0.7,0,1.1,0.1v1.7c-0.1,0-0.3,0-0.4,0c-0.4,0-0.7,0.2-0.7,0.9
		v0.8h4.2v9.2h-2.4v-7.6h-1.8v7.6H440V51.4L440,51.4z M444.4,46.4h2.2v1.8h-2.2V46.4z"/>
	<path d="M448.1,55.9v-3.1c0-2,1-3.2,3.1-3.2c2,0,3,0.9,3,2.8v0.9h-2.3v-1c0-0.8-0.2-1.1-0.7-1.1s-0.7,0.3-0.7,1.3v3.7
		c0,1,0.2,1.3,0.7,1.3s0.7-0.3,0.7-1.1v-1.1h2.3v1c0,1.9-1,2.8-3,2.8C449.2,59.1,448.1,57.9,448.1,55.9z"/>
	<path d="M455.6,46.4h2.4v1.8h-2.4V46.4z M455.6,49.7h2.4V59h-2.4V49.7z"/>
	<path d="M459.8,49.7h2.4v0.9c0.7-0.7,1.4-1.1,2.2-1.1c1.1,0,1.6,0.9,1.6,2.1V59h-2.4v-7c0-0.5-0.1-0.8-0.6-0.8
		c-0.3,0-0.6,0.1-0.9,0.4v7.3h-2.4L459.8,49.7L459.8,49.7z"/>
	<path d="M467.4,56.9c0-2.3,2-3,3.8-3.7v-0.9c0-0.6-0.1-1-0.6-1s-0.6,0.4-0.7,0.9v0.6l-2.3-0.1c0.1-2.2,1.1-3.2,3.2-3.2
		c1.9,0,2.7,1.1,2.7,2.8v4.3c0,1.1,0.1,1.8,0.2,2.3h-2.2c-0.1-0.5-0.2-1.1-0.2-1.3c-0.2,0.8-0.8,1.5-1.8,1.5
		C468.1,59.1,467.4,58,467.4,56.9z M471.2,56.9v-2.5c-0.9,0.5-1.5,1.1-1.5,2c0,0.7,0.3,1,0.7,1C470.7,57.4,471,57.1,471.2,56.9z"/>
	<path d="M474.6,56.7l1.7-0.7c0.3,0.9,0.8,1.4,1.4,1.4c0.5,0,0.7-0.2,0.7-0.6c0-0.5-0.3-0.8-1.1-1.5l-0.9-0.7
		c-0.9-0.8-1.5-1.4-1.5-2.6c0-1.5,1.2-2.5,2.8-2.5c1.5,0,2.5,0.9,2.9,2.4l-1.6,0.7c-0.2-0.7-0.6-1.4-1.2-1.4c-0.4,0-0.6,0.3-0.6,0.6
		c0,0.4,0.4,0.8,1.1,1.4L479,54c0.8,0.7,1.6,1.4,1.6,2.6c0,1.6-1.3,2.5-2.8,2.5C476.2,59.1,475.2,58.4,474.6,56.7z"/>
</g>
<rect x="179.7" y="186.2" class="st2" width="116.6" height="48.3"/>
<g>
	<path d="M184.9,206.4v-4.8c0-2.7,1-4.2,3.8-4.2c2.9,0,3.8,1.6,3.8,4.2v4.9c0,2.6-1,4.2-3.8,4.2
		C185.9,210.7,184.9,209.1,184.9,206.4z M189.9,207.1V201c0-0.9-0.1-1.7-1.1-1.7s-1.1,0.8-1.1,1.7v6.1c0,0.9,0.1,1.7,1.1,1.7
		C189.7,208.8,189.9,207.9,189.9,207.1z"/>
	<path d="M194.5,202.9h-0.9v-1.6h0.9v-0.6c0-1.7,0.5-2.7,2.4-2.7c0.3,0,0.7,0,1.1,0.1v1.7c-0.1,0-0.3-0.1-0.4-0.1
		c-0.4,0-0.7,0.2-0.7,0.9v0.8h4.2v9.2h-2.4V203h-1.8v7.6h-2.4L194.5,202.9L194.5,202.9z M198.9,197.9h2.2v1.8h-2.2V197.9z"/>
	<path d="M202.6,207.4v-3.1c0-2,1-3.2,3.1-3.2c2,0,3,0.9,3,2.8v0.9h-2.3v-0.9c0-0.8-0.2-1.1-0.7-1.1s-0.7,0.3-0.7,1.3v3.6
		c0,1,0.2,1.3,0.7,1.3s0.7-0.3,0.7-1.1v-1.1h2.3v1c0,1.9-1,2.9-3,2.9C203.6,210.6,202.6,209.4,202.6,207.4z"/>
	<path d="M210.1,197.9h2.4v1.8h-2.4V197.9z M210.1,201.2h2.4v9.2h-2.4V201.2z"/>
	<path d="M214.2,201.2h2.4v0.9c0.7-0.7,1.4-1.1,2.2-1.1c1.1,0,1.6,0.9,1.6,2.1v7.3H218v-6.9c0-0.5-0.1-0.8-0.6-0.8
		c-0.3,0-0.6,0.1-0.9,0.4v7.3h-2.4L214.2,201.2L214.2,201.2z"/>
	<path d="M221.9,208.4c0-2.3,2-3,3.8-3.7v-0.9c0-0.6-0.1-1-0.6-1s-0.6,0.4-0.7,0.9l-0.1,0.6l-2.3-0.1c0.1-2.2,1.1-3.2,3.2-3.2
		c1.9,0,2.7,1.1,2.7,2.8v4.3c0,1.1,0.1,1.8,0.2,2.3H226c-0.1-0.5-0.2-1.1-0.2-1.3c-0.2,0.8-0.8,1.5-1.8,1.5
		C222.6,210.6,221.9,209.5,221.9,208.4z M225.7,208.4v-2.5c-0.9,0.5-1.6,1.1-1.6,2c0,0.7,0.3,1,0.7,1
		C225.2,208.9,225.5,208.6,225.7,208.4z"/>
	<path d="M229.1,208.3l1.7-0.7c0.3,0.9,0.8,1.4,1.4,1.4c0.4,0,0.7-0.2,0.7-0.6c0-0.5-0.3-0.8-1.1-1.5l-0.9-0.7
		c-0.9-0.8-1.5-1.4-1.5-2.6c0-1.5,1.2-2.5,2.8-2.5c1.5,0,2.5,0.9,2.9,2.4l-1.6,0.7c-0.2-0.7-0.6-1.4-1.2-1.4c-0.4,0-0.6,0.3-0.6,0.6
		c0,0.4,0.4,0.8,1.1,1.4l0.9,0.8c0.8,0.7,1.6,1.4,1.6,2.6c0,1.6-1.3,2.5-2.8,2.5C230.7,210.6,229.6,209.9,229.1,208.3z"/>
</g>
<rect x="302.4" y="186.2" class="st2" width="116.6" height="64.8"/>
<g>
	<path d="M307.7,206.4v-4.8c0-2.7,1-4.2,3.8-4.2c2.9,0,3.8,1.6,3.8,4.2v4.9c0,2.6-1,4.2-3.8,4.2
		C308.6,210.7,307.7,209.1,307.7,206.4z M312.6,207.1V201c0-0.9-0.1-1.7-1.1-1.7s-1.1,0.8-1.1,1.7v6.1c0,0.9,0.1,1.7,1.1,1.7
		S312.6,207.9,312.6,207.1z"/>
	<path d="M317.3,202.9h-0.9v-1.6h0.9v-0.6c0-1.7,0.5-2.7,2.4-2.7c0.3,0,0.7,0,1.1,0.1v1.7c-0.1,0-0.3-0.1-0.4-0.1
		c-0.4,0-0.7,0.2-0.7,0.9v0.8h4.2v9.2h-2.4V203h-1.8v7.6h-2.4L317.3,202.9L317.3,202.9z M321.6,197.9h2.2v1.8h-2.2V197.9z"/>
	<path d="M325.4,207.4v-3.1c0-2,1-3.2,3.1-3.2c2,0,3,0.9,3,2.8v0.9h-2.3v-0.9c0-0.8-0.2-1.1-0.7-1.1s-0.7,0.3-0.7,1.3v3.6
		c0,1,0.2,1.3,0.7,1.3s0.7-0.3,0.7-1.1v-1.1h2.3v1c0,1.9-1,2.9-3,2.9C326.4,210.6,325.4,209.4,325.4,207.4z"/>
	<path d="M332.9,197.9h2.4v1.8h-2.4V197.9z M332.9,201.2h2.4v9.2h-2.4V201.2z"/>
	<path d="M337,201.2h2.4v0.9c0.7-0.7,1.4-1.1,2.2-1.1c1.1,0,1.6,0.9,1.6,2.1v7.3h-2.4v-6.9c0-0.5-0.1-0.8-0.6-0.8
		c-0.3,0-0.6,0.1-0.9,0.4v7.3H337V201.2L337,201.2z"/>
	<path d="M344.6,208.4c0-2.3,2-3,3.8-3.7v-0.9c0-0.6-0.1-1-0.6-1s-0.6,0.4-0.7,0.9v0.6l-2.3-0.1c0.1-2.2,1.1-3.2,3.2-3.2
		c1.9,0,2.7,1.1,2.7,2.8v4.3c0,1.1,0.1,1.8,0.2,2.3h-2.2c-0.1-0.5-0.2-1.1-0.2-1.3c-0.2,0.8-0.8,1.5-1.8,1.5
		C345.4,210.6,344.6,209.5,344.6,208.4z M348.4,208.4v-2.5c-0.9,0.5-1.5,1.1-1.5,2c0,0.7,0.3,1,0.7,1
		C348,208.9,348.3,208.6,348.4,208.4z"/>
	<path d="M351.8,208.3l1.7-0.7c0.3,0.9,0.8,1.4,1.4,1.4c0.5,0,0.7-0.2,0.7-0.6c0-0.5-0.3-0.8-1.1-1.5l-0.9-0.7
		c-0.9-0.8-1.5-1.4-1.5-2.6c0-1.5,1.2-2.5,2.8-2.5c1.5,0,2.5,0.9,2.9,2.4l-1.6,0.7c-0.2-0.7-0.6-1.4-1.2-1.4c-0.4,0-0.6,0.3-0.6,0.6
		c0,0.4,0.4,0.8,1.1,1.4l0.9,0.8c0.8,0.7,1.6,1.4,1.6,2.6c0,1.6-1.3,2.5-2.8,2.5C353.4,210.6,352.4,209.9,351.8,208.3z"/>
</g>
<rect x="425.2" y="186.2" class="st2" width="116.6" height="48.3"/>
<g>
	<path d="M430.4,206.4v-4.8c0-2.7,1-4.2,3.8-4.2c2.9,0,3.8,1.6,3.8,4.2v4.9c0,2.6-1,4.2-3.8,4.2
		C431.4,210.7,430.4,209.1,430.4,206.4z M435.4,207.1V201c0-0.9-0.1-1.7-1.1-1.7s-1.1,0.8-1.1,1.7v6.1c0,0.9,0.1,1.7,1.1,1.7
		S435.4,207.9,435.4,207.1z"/>
	<path d="M440,202.9h-0.9v-1.6h0.9v-0.6c0-1.7,0.5-2.7,2.4-2.7c0.3,0,0.7,0,1.1,0.1v1.7c-0.1,0-0.3-0.1-0.4-0.1
		c-0.4,0-0.7,0.2-0.7,0.9v0.8h4.2v9.2h-2.4V203h-1.8v7.6H440V202.9L440,202.9z M444.4,197.9h2.2v1.8h-2.2V197.9z"/>
	<path d="M448.1,207.4v-3.1c0-2,1-3.2,3.1-3.2c2,0,3,0.9,3,2.8v0.9h-2.3v-0.9c0-0.8-0.2-1.1-0.7-1.1s-0.7,0.3-0.7,1.3v3.6
		c0,1,0.2,1.3,0.7,1.3s0.7-0.3,0.7-1.1v-1.1h2.3v1c0,1.9-1,2.9-3,2.9C449.2,210.6,448.1,209.4,448.1,207.4z"/>
	<path d="M455.6,197.9h2.4v1.8h-2.4V197.9z M455.6,201.2h2.4v9.2h-2.4V201.2z"/>
	<path d="M459.8,201.2h2.4v0.9c0.7-0.7,1.4-1.1,2.2-1.1c1.1,0,1.6,0.9,1.6,2.1v7.3h-2.4v-6.9c0-0.5-0.1-0.8-0.6-0.8
		c-0.3,0-0.6,0.1-0.9,0.4v7.3h-2.4L459.8,201.2L459.8,201.2z"/>
	<path d="M467.4,208.4c0-2.3,2-3,3.8-3.7v-0.9c0-0.6-0.1-1-0.6-1s-0.6,0.4-0.7,0.9v0.6l-2.3-0.1c0.1-2.2,1.1-3.2,3.2-3.2
		c1.9,0,2.7,1.1,2.7,2.8v4.3c0,1.1,0.1,1.8,0.2,2.3h-2.2c-0.1-0.5-0.2-1.1-0.2-1.3c-0.2,0.8-0.8,1.5-1.8,1.5
		C468.1,210.6,467.4,209.5,467.4,208.4z M471.2,208.4v-2.5c-0.9,0.5-1.5,1.1-1.5,2c0,0.7,0.3,1,0.7,1
		C470.7,208.9,471,208.6,471.2,208.4z"/>
	<path d="M474.6,208.3l1.7-0.7c0.3,0.9,0.8,1.4,1.4,1.4c0.5,0,0.7-0.2,0.7-0.6c0-0.5-0.3-0.8-1.1-1.5l-0.9-0.7
		c-0.9-0.8-1.5-1.4-1.5-2.6c0-1.5,1.2-2.5,2.8-2.5c1.5,0,2.5,0.9,2.9,2.4l-1.6,0.7c-0.2-0.7-0.6-1.4-1.2-1.4c-0.4,0-0.6,0.3-0.6,0.6
		c0,0.4,0.4,0.8,1.1,1.4l0.9,0.8c0.8,0.7,1.6,1.4,1.6,2.6c0,1.6-1.3,2.5-2.8,2.5C476.2,210.6,475.2,209.9,474.6,208.3z"/>
</g>
<rect x="547.2" y="38" class="st2" width="116.5" height="108.4"/>
<g>
	<path d="M552.5,54.9V50c0-2.7,1-4.2,3.8-4.2s3.8,1.6,3.8,4.2v4.8c0,2.6-1,4.2-3.8,4.2C553.5,59.1,552.5,57.5,552.5,54.9z
		 M557.5,55.5v-6.1c0-0.9-0.1-1.7-1.1-1.7s-1.1,0.8-1.1,1.7v6.1c0,0.9,0.1,1.7,1.1,1.7C557.3,57.2,557.5,56.4,557.5,55.5z"/>
	<path d="M562.1,51.4h-0.9v-1.7h0.9v-0.6c0-1.7,0.5-2.7,2.4-2.7c0.3,0,0.7,0,1.1,0.1v1.7c-0.1,0-0.3,0-0.4,0c-0.4,0-0.7,0.2-0.7,0.9
		v0.8h4.2v9.2h-2.4v-7.6h-1.8v7.6h-2.4L562.1,51.4L562.1,51.4z M566.5,46.4h2.2v1.8h-2.2V46.4z"/>
	<path d="M570.2,55.9v-3.1c0-2,1-3.2,3.1-3.2c2,0,3,0.9,3,2.8v0.9H574v-1c0-0.8-0.2-1.1-0.7-1.1s-0.7,0.3-0.7,1.3v3.7
		c0,1,0.2,1.3,0.7,1.3s0.7-0.3,0.7-1.1v-1.1h2.3v1c0,1.9-1,2.8-3,2.8C571.2,59.1,570.2,57.9,570.2,55.9z"/>
	<path d="M577.7,46.4h2.4v1.8h-2.4V46.4z M577.7,49.7h2.4V59h-2.4V49.7z"/>
	<path d="M581.8,49.7h2.4v0.9c0.7-0.7,1.4-1.1,2.2-1.1c1.1,0,1.7,0.9,1.7,2.1V59h-2.4v-7c0-0.5-0.1-0.8-0.6-0.8
		c-0.3,0-0.6,0.1-0.9,0.4v7.3h-2.4V49.7L581.8,49.7z"/>
	<path d="M589.5,56.9c0-2.3,2-3,3.8-3.7v-0.9c0-0.6-0.1-1-0.6-1s-0.6,0.4-0.7,0.9v0.6l-2.3-0.1c0.1-2.2,1.1-3.2,3.2-3.2
		c1.9,0,2.7,1.1,2.7,2.8v4.3c0,1.1,0.1,1.8,0.2,2.3h-2.2c-0.1-0.5-0.2-1.1-0.2-1.3c-0.2,0.8-0.8,1.5-1.8,1.5
		C590.2,59.1,589.5,58,589.5,56.9z M593.2,56.9v-2.5c-0.9,0.5-1.5,1.1-1.5,2c0,0.7,0.3,1,0.7,1C592.8,57.4,593.1,57.1,593.2,56.9z"
		/>
	<path d="M596.7,56.7l1.7-0.7c0.3,0.9,0.8,1.4,1.4,1.4c0.5,0,0.7-0.2,0.7-0.6c0-0.5-0.3-0.8-1.2-1.5l-0.9-0.7
		c-0.9-0.8-1.5-1.4-1.5-2.6c0-1.5,1.2-2.5,2.8-2.5c1.5,0,2.5,0.9,2.8,2.4l-1.6,0.7c-0.2-0.7-0.6-1.4-1.2-1.4c-0.4,0-0.6,0.3-0.6,0.6
		c0,0.4,0.4,0.8,1.1,1.4L601,54c0.8,0.7,1.6,1.4,1.6,2.6c0,1.6-1.3,2.5-2.8,2.5C598.2,59.1,597.2,58.4,596.7,56.7z"/>
</g>
<rect x="547.2" y="216.1" class="st1" width="116.5" height="48.1"/>
<g>
	<path d="M62.6,139.9l0.7-0.2c0.1,0.6,0.3,0.9,0.6,0.9s0.5-0.2,0.5-0.5s-0.1-0.4-0.4-0.7l-0.8-0.7c-0.3-0.3-0.5-0.6-0.5-1.1
		c0-0.7,0.5-1.1,1.2-1.1c0.7,0,1.1,0.5,1.1,1.2l-0.6,0.2c-0.1-0.5-0.2-0.8-0.5-0.8c-0.3,0-0.4,0.2-0.4,0.5c0,0.2,0.1,0.3,0.2,0.4
		l0.8,0.7c0.3,0.3,0.6,0.6,0.6,1.2c0,0.8-0.5,1.1-1.2,1.1C63.1,141.1,62.6,140.6,62.6,139.9z"/>
	<path d="M65.6,140.1c0-1.1,0.8-1.4,1.8-1.8V138c0-0.5-0.1-0.8-0.4-0.8s-0.5,0.2-0.5,0.6v0.2h-0.8c0-1,0.4-1.4,1.3-1.4
		s1.2,0.5,1.2,1.4v2c0,0.4,0,0.8,0.1,1.1h-0.8c0-0.2-0.1-0.4-0.1-0.7c-0.1,0.3-0.4,0.7-0.9,0.7C66,141.1,65.6,140.6,65.6,140.1z
		 M67.4,140v-1.3c-0.5,0.3-0.9,0.5-0.9,1.1c0,0.4,0.1,0.6,0.4,0.6C67.1,140.4,67.3,140.2,67.4,140z"/>
	<path d="M69.1,134.8h0.8v6.3h-0.8V134.8z"/>
	<path d="M70.7,140.1c0-1.1,0.8-1.4,1.8-1.8V138c0-0.5-0.1-0.8-0.4-0.8s-0.5,0.2-0.5,0.6v0.2h-0.8c0-1,0.4-1.4,1.3-1.4
		s1.2,0.5,1.2,1.4v2c0,0.4,0,0.8,0.1,1.1h-0.8c0-0.2-0.1-0.4-0.1-0.7c-0.1,0.3-0.4,0.7-0.9,0.7C71.1,141.1,70.7,140.6,70.7,140.1z
		 M71.6,135.3c-0.2,0-0.3,0.1-0.3,0.3h-0.5c0-0.5,0.1-0.8,0.6-0.8c0.4,0,0.6,0.4,1,0.4c0.2,0,0.3-0.1,0.3-0.3h0.5
		c0,0.5-0.1,0.9-0.6,0.9C72.2,135.6,72,135.3,71.6,135.3z M72.4,140v-1.3c-0.5,0.3-0.9,0.5-0.9,1.1c0,0.4,0.1,0.6,0.4,0.6
		C72.1,140.4,72.4,140.2,72.4,140z"/>
	<path d="M74,139.5v-1.3c0-1,0.3-1.6,1.3-1.6s1.3,0.6,1.3,1.6v1.3c0,1-0.3,1.6-1.3,1.6S74,140.5,74,139.5z M75.8,139.5v-1.4
		c0-0.5,0-1-0.5-1s-0.5,0.5-0.5,1v1.4c0,0.5,0,1,0.5,1S75.8,140,75.8,139.5z"/>
	<path d="M79.1,136.6H80v0.4c0.3-0.3,0.7-0.5,1.1-0.5c0.5,0,0.7,0.5,0.7,0.9v3.6H81v-3.4c0-0.3-0.1-0.5-0.4-0.5
		c-0.2,0-0.4,0.1-0.6,0.3v3.6h-0.8L79.1,136.6L79.1,136.6z"/>
	<path d="M82.5,139.5v-1.3c0-1,0.3-1.6,1.3-1.6s1.3,0.6,1.3,1.6v1.3c0,1-0.3,1.6-1.3,1.6S82.5,140.5,82.5,139.5z M84.2,139.5v-1.4
		c0-0.5,0-1-0.5-1s-0.5,0.5-0.5,1v1.4c0,0.5,0,1,0.5,1S84.2,140,84.2,139.5z"/>
	<path d="M86.7,140.7v0.3h-0.8v-6.3h0.8v2.2c0.2-0.2,0.5-0.4,0.8-0.4c0.9,0,1,1.1,1,1.7v1.1c0,1-0.2,1.8-1.1,1.8
		C87.1,141.1,86.9,140.9,86.7,140.7z M87.7,139.3v-1.1c0-0.6-0.1-1-0.5-1c-0.2,0-0.4,0.1-0.6,0.2v2.9c0.1,0.1,0.3,0.2,0.6,0.2
		C87.7,140.5,87.7,139.9,87.7,139.3z"/>
	<path d="M89.3,136.6h0.8v0.6c0.3-0.5,0.7-0.7,1-0.7h0.1v0.9c-0.1,0-0.3-0.1-0.5-0.1c-0.3,0-0.5,0.1-0.7,0.4v3.3h-0.8L89.3,136.6
		L89.3,136.6z"/>
	<path d="M91.7,139.3v-1c0-1.2,0.3-1.8,1.3-1.8c1.1,0,1.3,0.7,1.3,1.9v0.4h-1.8v0.9c0,0.5,0.1,0.8,0.5,0.8s0.4-0.3,0.4-0.7v-0.3h0.8
		v0.2c0,0.9-0.3,1.4-1.3,1.4C92,141.1,91.7,140.5,91.7,139.3z M93.5,138.4V138c0-0.5-0.1-0.9-0.5-0.9s-0.5,0.2-0.5,1v0.2L93.5,138.4
		L93.5,138.4z"/>
</g>
<g>
	<path d="M554.3,227.4l2.3-0.4c0.1,1.6,0.4,2.4,1.3,2.4c0.7,0,0.9-0.5,0.9-1.1c0-1.1-0.6-1.7-1.4-2.5l-1.3-1.2
		c-1-0.8-1.7-1.8-1.7-3.3c0-2.1,1.4-3.3,3.5-3.3c2.6,0,3.1,1.9,3.2,3.6l-2.3,0.3c0-1.2-0.2-2-1-2c-0.6,0-0.9,0.5-0.9,1.1
		c0,0.9,0.5,1.4,1.2,2.1l1.3,1.2c1.1,0.9,2,2.1,2,3.8c0,1.9-1.3,3.2-3.3,3.2C555.5,231.4,554.4,230.1,554.3,227.4z"/>
	<path d="M562.3,228.2v-3.1c0-2.1,1.1-3.2,3.1-3.2c2.1,0,3,1.2,3,3.3v1.6h-3.7v1.8c0,0.8,0.3,1.1,0.7,1.1c0.5,0,0.7-0.3,0.7-1v-0.9
		h2.2v0.8c0,1.9-1.1,2.9-3,2.9C563.4,231.4,562.3,230.3,562.3,228.2z M566.2,225.6v-0.9c0-0.8-0.2-1.1-0.7-1.1s-0.7,0.3-0.7,1.3v0.7
		H566.2L566.2,225.6z"/>
	<path d="M569.4,229l1.7-0.7c0.3,0.9,0.8,1.4,1.4,1.4c0.5,0,0.7-0.2,0.7-0.6c0-0.5-0.3-0.8-1.1-1.5l-0.9-0.7
		c-0.9-0.8-1.5-1.4-1.5-2.6c0-1.5,1.2-2.5,2.8-2.5c1.5,0,2.5,0.9,2.8,2.4l-1.6,0.7c-0.2-0.7-0.6-1.4-1.2-1.4c-0.4,0-0.6,0.3-0.6,0.6
		c0,0.4,0.4,0.8,1.1,1.4l0.9,0.8c0.8,0.7,1.6,1.4,1.6,2.6c0,1.6-1.3,2.5-2.8,2.5C570.9,231.4,569.9,230.7,569.4,229z"/>
	<path d="M576,229l1.7-0.7c0.3,0.9,0.8,1.4,1.4,1.4c0.5,0,0.7-0.2,0.7-0.6c0-0.5-0.3-0.8-1.2-1.5l-0.9-0.7c-0.9-0.8-1.5-1.4-1.5-2.6
		c0-1.5,1.2-2.5,2.8-2.5c1.5,0,2.5,0.9,2.8,2.4l-1.6,0.7c-0.2-0.7-0.6-1.4-1.2-1.4c-0.4,0-0.6,0.3-0.6,0.6c0,0.4,0.4,0.8,1.1,1.4
		l0.9,0.8c0.8,0.7,1.6,1.4,1.6,2.6c0,1.6-1.3,2.5-2.8,2.5C577.6,231.4,576.5,230.7,576,229z"/>
	<path d="M582.8,229.2c0-2.3,2-3,3.8-3.7v-0.9c0-0.6-0.1-1-0.6-1s-0.6,0.4-0.7,0.9l-0.1,0.6L583,225c0.1-2.2,1.1-3.2,3.2-3.2
		c1.9,0,2.7,1.1,2.7,2.8v4.3c0,1.1,0.1,1.8,0.2,2.3h-2.2c-0.1-0.5-0.2-1.1-0.2-1.3c-0.2,0.8-0.8,1.5-1.8,1.5
		C583.6,231.4,582.8,230.3,582.8,229.2z M585.4,219.7c-0.5,0-0.6,0.3-0.6,0.7h-1.2c0-1.2,0.3-2.2,1.4-2.2c0.8,0,1.3,0.7,2,0.7
		c0.4,0,0.5-0.3,0.5-0.6h1.1c0,1-0.1,2.2-1.2,2.2C586.6,220.4,586.1,219.7,585.4,219.7z M586.6,229.2v-2.5c-0.9,0.5-1.5,1.1-1.5,2
		c0,0.7,0.3,1,0.7,1C586.1,229.7,586.5,229.4,586.6,229.2z"/>
	<path d="M590.3,228.3V225c0-2,1.1-3.1,3.1-3.1s3.1,1.1,3.1,3.1v3.3c0,2-1.1,3.1-3.1,3.1C591.5,231.4,590.3,230.3,590.3,228.3z
		 M594.2,228.5v-3.7c0-0.8-0.1-1.3-0.7-1.3c-0.6,0-0.8,0.6-0.8,1.3v3.7c0,0.8,0.1,1.3,0.8,1.3C594.1,229.8,594.2,229.2,594.2,228.5z
		"/>
</g>
<rect x="302.4" y="66.1" class="st4" width="116.6" height="21"/>
<g>
	<path d="M308.7,77.6h0.8l1.3,6.3H310l-0.3-1.6h-1.3l-0.3,1.6h-0.8L308.7,77.6z M309.7,81.7l-0.5-2.8l-0.5,2.8H309.7z"/>
	<path d="M311.5,79.4h0.8v0.4c0.3-0.3,0.7-0.5,1.1-0.5c0.5,0,0.7,0.5,0.7,0.9v3.6h-0.8v-3.4c0-0.3-0.1-0.5-0.4-0.5
		c-0.2,0-0.4,0.1-0.6,0.3v3.6h-0.8L311.5,79.4L311.5,79.4z"/>
	<path d="M315.1,80.1h-0.5v-0.6h0.5v-0.2c0-0.9,0.2-1.3,1.1-1.3c0.1,0,0.3,0,0.4,0v0.6c-0.1,0-0.2,0-0.3,0c-0.3,0-0.4,0.2-0.4,0.6
		v0.4h1.8v4.5H317v-3.9h-1v3.9h-0.8v-4H315.1z M317,77.9h0.8v0.9H317V77.9z"/>
	<path d="M318.9,82.9V80h-0.5v-0.5h0.5v-1.3h0.8v1.3h0.7V80h-0.7v2.9c0,0.3,0.1,0.5,0.4,0.5c0.1,0,0.2,0,0.3,0V84
		c-0.2,0-0.4,0-0.6,0C319.2,84,318.9,83.6,318.9,82.9z"/>
	<path d="M321,82.2v-1c0-1.2,0.3-1.8,1.3-1.8c1.1,0,1.3,0.7,1.3,1.9v0.4h-1.8v0.9c0,0.5,0.1,0.8,0.5,0.8s0.4-0.3,0.4-0.7v-0.3h0.8
		v0.2c0,0.9-0.3,1.4-1.3,1.4C321.2,84,321,83.4,321,82.2z M322.7,81.2v-0.4c0-0.5-0.1-0.9-0.5-0.9s-0.5,0.2-0.5,1v0.2h1V81.2z"/>
	<path d="M324.2,82.9c0-1.1,0.8-1.4,1.8-1.8v-0.3c0-0.5-0.1-0.8-0.4-0.8s-0.5,0.2-0.5,0.6v0.2h-0.8c0-1,0.4-1.4,1.3-1.4
		s1.2,0.5,1.2,1.4v2c0,0.4,0,0.8,0.1,1.1h-0.8c0-0.2-0.1-0.4-0.1-0.7c-0.1,0.3-0.4,0.7-0.9,0.7C324.6,84,324.2,83.5,324.2,82.9z
		 M326,82.9v-1.3c-0.5,0.3-0.9,0.5-0.9,1.1c0,0.4,0.1,0.6,0.4,0.6C325.7,83.3,325.9,83,326,82.9z"/>
	<path d="M327.8,82.9V80h-0.5v-0.5h0.5v-1.3h0.8v1.3h0.7V80h-0.7v2.9c0,0.3,0.1,0.5,0.4,0.5c0.1,0,0.2,0,0.3,0V84
		c-0.2,0-0.4,0-0.6,0C328,84,327.8,83.6,327.8,82.9z"/>
	<path d="M330,79.4h0.8V80c0.3-0.5,0.7-0.7,1-0.7h0.1v0.9c-0.1,0-0.3-0.1-0.5-0.1c-0.3,0-0.5,0.1-0.7,0.4v3.3H330V79.4z"/>
	<path d="M332.3,82.3V81c0-1,0.3-1.6,1.3-1.6s1.3,0.6,1.3,1.6v1.3c0,1-0.3,1.6-1.3,1.6C332.7,84,332.3,83.3,332.3,82.3z M334.1,82.4
		V81c0-0.5,0-1-0.5-1s-0.5,0.5-0.5,1v1.4c0,0.5,0,1,0.5,1S334.1,82.9,334.1,82.4z"/>
</g>
<g>
	<path d="M307.6,73.2l1.1-0.2c0,0.8,0.2,1.2,0.6,1.2c0.3,0,0.4-0.2,0.4-0.5c0-0.5-0.3-0.8-0.7-1.2l-0.6-0.6
		c-0.5-0.4-0.8-0.9-0.8-1.6c0-1,0.7-1.6,1.7-1.6c1.3,0,1.5,0.9,1.6,1.7l-1.1,0.2c0-0.6-0.1-1-0.5-1c-0.3,0-0.4,0.3-0.4,0.5
		c0,0.4,0.2,0.7,0.6,1l0.6,0.6c0.5,0.5,1,1,1,1.9s-0.6,1.6-1.6,1.6C308.2,75.1,307.6,74.5,307.6,73.2z"/>
	<path d="M311.5,73.5V72c0-1,0.5-1.6,1.5-1.6s1.4,0.6,1.4,1.6v0.8h-1.8v0.9c0,0.4,0.1,0.5,0.3,0.5c0.2,0,0.3-0.1,0.3-0.5v-0.4h1.1
		v0.4c0,0.9-0.5,1.4-1.4,1.4C312,75.1,311.5,74.5,311.5,73.5z M313.3,72.3v-0.4c0-0.4-0.1-0.5-0.4-0.5c-0.2,0-0.3,0.1-0.3,0.6v0.3
		H313.3z"/>
	<path d="M314.9,74l0.8-0.3c0.1,0.4,0.4,0.7,0.7,0.7c0.2,0,0.3-0.1,0.3-0.3c0-0.2-0.1-0.4-0.6-0.7l-0.4-0.4
		c-0.4-0.4-0.7-0.7-0.7-1.2c0-0.7,0.6-1.2,1.3-1.2c0.7,0,1.2,0.4,1.4,1.2l-0.8,0.3c-0.1-0.3-0.3-0.7-0.6-0.7c-0.2,0-0.3,0.1-0.3,0.3
		c0,0.2,0.2,0.4,0.5,0.7l0.4,0.4c0.4,0.3,0.8,0.7,0.8,1.3c0,0.8-0.6,1.2-1.3,1.2C315.6,75.1,315.1,74.7,314.9,74z"/>
	<path d="M318.1,74l0.8-0.3c0.1,0.4,0.4,0.7,0.7,0.7c0.2,0,0.3-0.1,0.3-0.3c0-0.2-0.1-0.4-0.6-0.7l-0.4-0.4
		c-0.4-0.4-0.7-0.7-0.7-1.2c0-0.7,0.6-1.2,1.3-1.2c0.7,0,1.2,0.4,1.4,1.2l-0.8,0.3c-0.1-0.3-0.3-0.7-0.6-0.7c-0.2,0-0.3,0.1-0.3,0.3
		c0,0.2,0.2,0.4,0.5,0.7l0.4,0.4c0.4,0.3,0.8,0.7,0.8,1.3c0,0.8-0.6,1.2-1.3,1.2C318.8,75.1,318.3,74.7,318.1,74z"/>
	<path d="M321.4,74c0-1.1,1-1.5,1.8-1.8v-0.4c0-0.3-0.1-0.5-0.3-0.5c-0.2,0-0.3,0.2-0.3,0.4V72h-1.1c0-1.1,0.5-1.5,1.5-1.5
		c0.9,0,1.3,0.5,1.3,1.4V74c0,0.5,0,0.9,0.1,1.1h-1c0-0.2-0.1-0.5-0.1-0.6c-0.1,0.4-0.4,0.7-0.9,0.7C321.8,75.1,321.4,74.5,321.4,74
		z M322.6,69.4c-0.2,0-0.3,0.1-0.3,0.3h-0.6c0-0.6,0.2-1,0.7-1c0.4,0,0.6,0.3,1,0.3c0.2,0,0.2-0.1,0.2-0.3h0.5c0,0.5-0.1,1-0.6,1
		C323.2,69.8,322.9,69.4,322.6,69.4z M323.2,74v-1.2c-0.4,0.2-0.8,0.5-0.8,1c0,0.3,0.1,0.5,0.4,0.5C323,74.3,323.1,74.1,323.2,74z"
		/>
	<path d="M325,73.6V72c0-1,0.5-1.5,1.5-1.5S328,71,328,72v1.6c0,1-0.5,1.5-1.5,1.5C325.6,75.1,325,74.6,325,73.6z M326.9,73.7v-1.8
		c0-0.4-0.1-0.6-0.3-0.6c-0.3,0-0.4,0.3-0.4,0.6v1.8c0,0.4,0.1,0.6,0.4,0.6C326.8,74.3,326.9,74.1,326.9,73.7z"/>
	<path d="M330.8,68.8h2c1.1,0,1.6,0.6,1.6,1.8c0,1.3-0.7,1.7-1.8,1.7H332V75h-1.3L330.8,68.8L330.8,68.8z M332.5,71.4
		c0.6,0,0.7-0.3,0.7-0.9s-0.1-0.9-0.7-0.9H332v1.8H332.5z"/>
	<path d="M334.8,74c0-1.1,1-1.5,1.8-1.8v-0.4c0-0.3-0.1-0.5-0.3-0.5c-0.2,0-0.3,0.2-0.3,0.4V72h-1.1c0-1.1,0.5-1.5,1.5-1.5
		c0.9,0,1.3,0.5,1.3,1.4V74c0,0.5,0,0.9,0.1,1.1h-1c0-0.2-0.1-0.5-0.1-0.6c-0.1,0.4-0.4,0.7-0.9,0.7C335.1,75.1,334.8,74.5,334.8,74
		z M336.6,74v-1.2c-0.4,0.2-0.7,0.5-0.7,1c0,0.3,0.1,0.5,0.4,0.5C336.4,74.3,336.5,74.1,336.6,74z"/>
	<path d="M338.5,70.6h1.2v0.7c0.3-0.5,0.6-0.8,1-0.8c0.1,0,0.1,0,0.2,0v1.2c-0.1-0.1-0.3-0.1-0.4-0.1c-0.3,0-0.5,0.1-0.7,0.4v3h-1.2
		v-4.4C338.6,70.6,338.5,70.6,338.5,70.6z"/>
	<path d="M341.2,74c0-1.1,1-1.5,1.8-1.8v-0.4c0-0.3-0.1-0.5-0.3-0.5c-0.2,0-0.3,0.2-0.3,0.4V72h-1.1c0-1.1,0.5-1.5,1.5-1.5
		c0.9,0,1.3,0.5,1.3,1.4V74c0,0.5,0,0.9,0.1,1.1h-1c0-0.2-0.1-0.5-0.1-0.6c-0.1,0.4-0.4,0.7-0.9,0.7C341.6,75.1,341.2,74.5,341.2,74
		z M343,74v-1.2c-0.4,0.2-0.8,0.5-0.8,1c0,0.3,0.1,0.5,0.4,0.5C342.8,74.3,343,74.1,343,74z"/>
	<path d="M345,68.8h1.2V75H345V68.8z"/>
	<path d="M346.9,73.5V72c0-1,0.5-1.6,1.5-1.6s1.4,0.6,1.4,1.6v0.8H348v0.9c0,0.4,0.1,0.5,0.3,0.5c0.2,0,0.3-0.1,0.3-0.5v-0.4h1.1
		v0.4c0,0.9-0.5,1.4-1.4,1.4C347.4,75.1,346.9,74.5,346.9,73.5z M348.7,72.3v-0.4c0-0.4-0.1-0.5-0.4-0.5c-0.2,0-0.3,0.1-0.3,0.6v0.3
		H348.7z"/>
	<path d="M350.6,68.8h1.2V75h-1.2V68.8z"/>
	<path d="M352.5,74c0-1.1,1-1.5,1.8-1.8v-0.4c0-0.3-0.1-0.5-0.3-0.5c-0.2,0-0.3,0.2-0.3,0.4V72h-1.1c0-1.1,0.5-1.5,1.5-1.5
		c0.9,0,1.3,0.5,1.3,1.4V74c0,0.5,0,0.9,0.1,1.1h-1c0-0.2-0.1-0.5-0.1-0.6c-0.1,0.4-0.4,0.7-0.9,0.7C352.8,75.1,352.5,74.5,352.5,74
		z M354.3,74v-1.2c-0.4,0.2-0.8,0.5-0.8,1c0,0.3,0.1,0.5,0.4,0.5C354.1,74.3,354.2,74.1,354.3,74z"/>
	<path d="M358.8,70c-0.2,0.1-0.7,0.2-0.9,0.3v-0.9c0.2-0.1,0.9-0.4,1.2-0.7h0.9V75h-1.2V70z"/>
	<path d="M363.2,72h1.9v0.8h-1.9V72z"/>
	<path d="M368,68.8h1.3v5.4h1.5V75H368V68.8z"/>
	<path d="M371.3,68.9h1.2v0.9h-1.2V68.9z M371.3,70.6h1.2V75h-1.2V70.6z"/>
	<path d="M373,74l0.8-0.3c0.1,0.4,0.4,0.7,0.7,0.7c0.2,0,0.3-0.1,0.3-0.3c0-0.2-0.1-0.4-0.6-0.7l-0.4-0.4c-0.4-0.4-0.7-0.7-0.7-1.2
		c0-0.7,0.6-1.2,1.3-1.2c0.7,0,1.2,0.4,1.4,1.2l-0.8,0.3c-0.1-0.3-0.3-0.7-0.6-0.7c-0.2,0-0.3,0.1-0.3,0.3c0,0.2,0.2,0.4,0.5,0.7
		l0.4,0.4c0.4,0.3,0.8,0.7,0.8,1.3c0,0.8-0.6,1.2-1.3,1.2C373.8,75.1,373.3,74.7,373,74z"/>
	<path d="M377.6,74.7V75h-1.2v-6.3h1.2v2.1c0.3-0.3,0.6-0.4,1-0.4c0.7,0,1,0.7,1,1.4v1.7c0,0.9-0.3,1.5-1,1.5
		C378.2,75.1,377.9,74.9,377.6,74.7z M378.4,73.7v-1.9c0-0.3-0.1-0.6-0.3-0.6c-0.2,0-0.3,0.1-0.4,0.2v2.8c0.1,0.1,0.3,0.1,0.4,0.1
		C378.3,74.3,378.4,74,378.4,73.7z"/>
	<path d="M380.2,73.6V72c0-1,0.5-1.5,1.5-1.5s1.5,0.5,1.5,1.5v1.6c0,1-0.5,1.5-1.5,1.5S380.2,74.6,380.2,73.6z M382,73.7v-1.8
		c0-0.4-0.1-0.6-0.3-0.6c-0.3,0-0.4,0.3-0.4,0.6v1.8c0,0.4,0.1,0.6,0.4,0.6C382,74.3,382,74.1,382,73.7z"/>
	<path d="M383.8,74c0-1.1,1-1.5,1.8-1.8v-0.4c0-0.3-0.1-0.5-0.3-0.5c-0.2,0-0.3,0.2-0.3,0.4V72h-1.1c0-1.1,0.5-1.5,1.5-1.5
		c0.9,0,1.3,0.5,1.3,1.4V74c0,0.5,0,0.9,0.1,1.1h-1c0-0.2-0.1-0.5-0.1-0.6c-0.1,0.4-0.4,0.7-0.9,0.7C384.2,75.1,383.8,74.5,383.8,74
		z M385.6,74v-1.2c-0.4,0.2-0.8,0.5-0.8,1c0,0.3,0.1,0.5,0.4,0.5C385.4,74.3,385.5,74.1,385.6,74z"/>
	<path d="M389.4,73v-2.2c0-1.3,0.4-2.1,1.8-2.1c1.3,0,1.8,0.7,1.8,1.8V71h-1.2v-0.6c0-0.4,0-0.8-0.5-0.8s-0.5,0.4-0.5,0.9v2.8
		c0,0.5,0.1,0.9,0.5,0.9c0.5,0,0.5-0.4,0.5-0.9v-0.6h1.2v0.5c0,1.1-0.4,1.9-1.8,1.9C389.9,75.1,389.4,74.3,389.4,73z"/>
	<path d="M393.7,74.1v-3.5h1.2V74c0,0.2,0.1,0.4,0.3,0.4c0.1,0,0.3-0.1,0.4-0.2v-3.6h1.2V75h-1.2v-0.4c-0.3,0.3-0.7,0.5-1.1,0.5
		C394,75.1,393.7,74.6,393.7,74.1z"/>
	<path d="M397.6,68.8h1.2V75h-1.2V68.8z"/>
	<path d="M399.7,73.9v-2.5h-0.4v-0.8h0.4v-1.3h1.2v1.3h0.6v0.8h-0.6v2.4c0,0.3,0.1,0.4,0.4,0.4c0.1,0,0.2,0,0.3,0V75
		c-0.2,0-0.4,0.1-0.7,0.1C400,75.1,399.7,74.6,399.7,73.9z"/>
	<path d="M402.2,74.1v-3.5h1.2V74c0,0.2,0.1,0.4,0.3,0.4c0.1,0,0.3-0.1,0.4-0.2v-3.6h1.2V75h-1.2v-0.4c-0.3,0.3-0.7,0.5-1.1,0.5
		C402.5,75.1,402.2,74.6,402.2,74.1z"/>
	<path d="M406.1,70.6h1.2v0.7c0.3-0.5,0.6-0.8,1-0.8c0.1,0,0.1,0,0.2,0v1.2c-0.1-0.1-0.3-0.1-0.4-0.1c-0.3,0-0.5,0.1-0.7,0.4v3h-1.2
		v-4.4C406.2,70.6,406.1,70.6,406.1,70.6z"/>
	<path d="M408.8,74c0-1.1,1-1.5,1.8-1.8v-0.4c0-0.3-0.1-0.5-0.3-0.5c-0.2,0-0.3,0.2-0.3,0.4V72h-1.1c0-1.1,0.5-1.5,1.5-1.5
		c0.9,0,1.3,0.5,1.3,1.4V74c0,0.5,0,0.9,0.1,1.1h-1c0-0.2-0.1-0.5-0.1-0.6c-0.1,0.4-0.4,0.7-0.9,0.7C409.1,75.1,408.8,74.5,408.8,74
		z M410.6,74v-1.2c-0.4,0.2-0.8,0.5-0.8,1c0,0.3,0.1,0.5,0.4,0.5C410.4,74.3,410.5,74.1,410.6,74z"/>
</g>
<g>
	<path d="M186.4,273.7h0.8l1.3,6.3h-0.8l-0.3-1.6h-1.3l-0.3,1.6H185L186.4,273.7z M187.3,277.8l-0.5-2.8l-0.5,2.8H187.3z"/>
	<path d="M189.1,275.5h0.8v0.4c0.3-0.3,0.7-0.5,1.1-0.5c0.5,0,0.7,0.5,0.7,0.9v3.6h-0.8v-3.4c0-0.3-0.1-0.5-0.4-0.5
		c-0.2,0-0.4,0.1-0.6,0.3v3.6h-0.8V275.5z"/>
	<path d="M192.8,276.1h-0.5v-0.6h0.5v-0.2c0-0.9,0.2-1.3,1.1-1.3c0.1,0,0.3,0,0.4,0v0.6c-0.1,0-0.2,0-0.3,0c-0.3,0-0.4,0.2-0.4,0.6
		v0.4h1.8v4.5h-0.8v-3.9h-1v3.9h-0.8V276.1z M194.7,274h0.8v0.9h-0.8V274z"/>
	<path d="M196.6,279v-2.9h-0.5v-0.5h0.5v-1.3h0.8v1.3h0.7v0.5h-0.7v2.9c0,0.3,0.1,0.5,0.4,0.5c0.1,0,0.2,0,0.3,0v0.6
		c-0.2,0-0.4,0-0.6,0C196.8,280,196.6,279.6,196.6,279z"/>
	<path d="M198.6,278.2v-1c0-1.2,0.3-1.8,1.3-1.8c1.1,0,1.3,0.7,1.3,1.9v0.4h-1.8v0.9c0,0.5,0.1,0.8,0.5,0.8s0.4-0.3,0.4-0.7v-0.3
		h0.8v0.2c0,0.9-0.3,1.4-1.3,1.4C198.9,280,198.6,279.4,198.6,278.2z M200.4,277.3v-0.4c0-0.5-0.1-0.9-0.5-0.9s-0.5,0.2-0.5,1v0.2
		L200.4,277.3L200.4,277.3z"/>
	<path d="M201.9,279c0-1.1,0.8-1.4,1.8-1.8v-0.3c0-0.5-0.1-0.8-0.4-0.8c-0.3,0-0.5,0.2-0.5,0.6v0.2H202c0-1,0.4-1.4,1.3-1.4
		c0.9,0,1.2,0.5,1.2,1.4v2c0,0.4,0,0.8,0.1,1.1h-0.8c0-0.2-0.1-0.4-0.1-0.7c-0.1,0.3-0.4,0.7-0.9,0.7
		C202.3,280,201.9,279.5,201.9,279z M203.7,279v-1.3c-0.5,0.3-0.9,0.5-0.9,1.1c0,0.4,0.1,0.6,0.4,0.6
		C203.4,279.3,203.6,279.1,203.7,279z"/>
	<path d="M205.5,279v-2.9H205v-0.5h0.5v-1.3h0.8v1.3h0.7v0.5h-0.7v2.9c0,0.3,0.1,0.5,0.4,0.5c0.1,0,0.2,0,0.3,0v0.6
		c-0.2,0-0.4,0-0.6,0C205.7,280,205.5,279.6,205.5,279z"/>
	<path d="M207.6,275.5h0.8v0.6c0.3-0.5,0.7-0.7,1-0.7h0.1v0.9c-0.1,0-0.3-0.1-0.5-0.1c-0.3,0-0.5,0.1-0.7,0.4v3.3h-0.8L207.6,275.5
		L207.6,275.5z"/>
	<path d="M210,278.4v-1.3c0-1,0.3-1.6,1.3-1.6s1.3,0.6,1.3,1.6v1.3c0,1-0.3,1.6-1.3,1.6S210,279.4,210,278.4z M211.8,278.4V277
		c0-0.5,0-1-0.5-1s-0.5,0.5-0.5,1v1.4c0,0.5,0,1,0.5,1S211.8,278.9,211.8,278.4z"/>
</g>
<g>
	<path d="M308.7,273.7h0.8l1.3,6.3H310l-0.3-1.6h-1.3l-0.3,1.6h-0.8L308.7,273.7z M309.7,277.8l-0.5-2.8l-0.5,2.8H309.7z"/>
	<path d="M311.5,275.5h0.8v0.4c0.3-0.3,0.7-0.5,1.1-0.5c0.5,0,0.7,0.5,0.7,0.9v3.6h-0.8v-3.4c0-0.3-0.1-0.5-0.4-0.5
		c-0.2,0-0.4,0.1-0.6,0.3v3.6h-0.8L311.5,275.5L311.5,275.5z"/>
	<path d="M315.1,276.1h-0.5v-0.6h0.5v-0.2c0-0.9,0.2-1.3,1.1-1.3c0.1,0,0.3,0,0.4,0v0.6c-0.1,0-0.2,0-0.3,0c-0.3,0-0.4,0.2-0.4,0.6
		v0.4h1.8v4.5H317v-3.9h-1v3.9h-0.8v-4H315.1z M317,274h0.8v0.9H317V274z"/>
	<path d="M318.9,279v-2.9h-0.5v-0.5h0.5v-1.3h0.8v1.3h0.7v0.5h-0.7v2.9c0,0.3,0.1,0.5,0.4,0.5c0.1,0,0.2,0,0.3,0v0.6
		c-0.2,0-0.4,0-0.6,0C319.2,280,318.9,279.6,318.9,279z"/>
	<path d="M321,278.2v-1c0-1.2,0.3-1.8,1.3-1.8c1.1,0,1.3,0.7,1.3,1.9v0.4h-1.8v0.9c0,0.5,0.1,0.8,0.5,0.8s0.4-0.3,0.4-0.7v-0.3h0.8
		v0.2c0,0.9-0.3,1.4-1.3,1.4C321.2,280,321,279.4,321,278.2z M322.7,277.3v-0.4c0-0.5-0.1-0.9-0.5-0.9s-0.5,0.2-0.5,1v0.2
		L322.7,277.3L322.7,277.3z"/>
	<path d="M324.2,279c0-1.1,0.8-1.4,1.8-1.8v-0.3c0-0.5-0.1-0.8-0.4-0.8s-0.5,0.2-0.5,0.6v0.2h-0.8c0-1,0.4-1.4,1.3-1.4
		s1.2,0.5,1.2,1.4v2c0,0.4,0,0.8,0.1,1.1h-0.8c0-0.2-0.1-0.4-0.1-0.7c-0.1,0.3-0.4,0.7-0.9,0.7C324.6,280,324.2,279.5,324.2,279z
		 M326,279v-1.3c-0.5,0.3-0.9,0.5-0.9,1.1c0,0.4,0.1,0.6,0.4,0.6C325.7,279.3,325.9,279.1,326,279z"/>
	<path d="M327.8,279v-2.9h-0.5v-0.5h0.5v-1.3h0.8v1.3h0.7v0.5h-0.7v2.9c0,0.3,0.1,0.5,0.4,0.5c0.1,0,0.2,0,0.3,0v0.6
		c-0.2,0-0.4,0-0.6,0C328,280,327.8,279.6,327.8,279z"/>
	<path d="M330,275.5h0.8v0.6c0.3-0.5,0.7-0.7,1-0.7h0.1v0.9c-0.1,0-0.3-0.1-0.5-0.1c-0.3,0-0.5,0.1-0.7,0.4v3.3H330V275.5z"/>
	<path d="M332.3,278.4v-1.3c0-1,0.3-1.6,1.3-1.6s1.3,0.6,1.3,1.6v1.3c0,1-0.3,1.6-1.3,1.6C332.7,280,332.3,279.4,332.3,278.4z
		 M334.1,278.4V277c0-0.5,0-1-0.5-1s-0.5,0.5-0.5,1v1.4c0,0.5,0,1,0.5,1S334.1,278.9,334.1,278.4z"/>
</g>
<g>
	<path d="M430.7,278.2l0.8-0.2c0,0.7,0.2,1.3,0.9,1.3c0.4,0,0.7-0.3,0.7-0.7c0-0.6-0.3-0.9-0.7-1.2l-1.1-0.9
		c-0.4-0.4-0.6-0.8-0.6-1.4c0-0.9,0.6-1.4,1.5-1.4c1,0,1.5,0.5,1.6,1.6l-0.7,0.2c0-0.6-0.2-1.1-0.8-1.1c-0.4,0-0.7,0.2-0.7,0.7
		c0,0.4,0.1,0.6,0.4,0.9l1.1,0.9c0.5,0.4,0.9,1,0.9,1.8c0,0.9-0.6,1.5-1.5,1.5C431.3,280,430.8,279.3,430.7,278.2z"/>
	<path d="M434.4,279c0-1.1,0.8-1.4,1.8-1.8v-0.3c0-0.5-0.1-0.8-0.4-0.8s-0.5,0.2-0.5,0.6v0.2h-0.8c0-1,0.4-1.4,1.3-1.4
		s1.2,0.5,1.2,1.4v2c0,0.4,0,0.8,0.1,1.1h-0.8c0-0.2-0.1-0.4-0.1-0.7c-0.1,0.3-0.4,0.7-0.9,0.7C434.8,280,434.4,279.5,434.4,279z
		 M436.2,279v-1.3c-0.5,0.3-0.9,0.5-0.9,1.1c0,0.4,0.1,0.6,0.4,0.6C435.9,279.3,436.1,279.1,436.2,279z"/>
	<path d="M437.9,273.7h0.8v6.3h-0.8V273.7z"/>
	<path d="M439.5,279c0-1.1,0.8-1.4,1.8-1.8v-0.3c0-0.5-0.1-0.8-0.4-0.8s-0.5,0.2-0.5,0.6v0.2h-0.8c0-1,0.4-1.4,1.3-1.4
		s1.2,0.5,1.2,1.4v2c0,0.4,0,0.8,0.1,1.1h-0.8c0-0.2-0.1-0.4-0.1-0.7c-0.1,0.3-0.4,0.7-0.9,0.7C439.9,280,439.5,279.5,439.5,279z
		 M440.4,274.2c-0.2,0-0.3,0.1-0.3,0.3h-0.5c0-0.5,0.1-0.8,0.6-0.8c0.4,0,0.6,0.4,1,0.4c0.2,0,0.3-0.1,0.3-0.3h0.5
		c0,0.5-0.1,0.9-0.6,0.9C441,274.6,440.8,274.2,440.4,274.2z M441.3,279v-1.3c-0.5,0.3-0.9,0.5-0.9,1.1c0,0.4,0.1,0.6,0.4,0.6
		C441,279.3,441.2,279.1,441.3,279z"/>
	<path d="M442.8,278.4v-1.3c0-1,0.3-1.6,1.3-1.6s1.3,0.6,1.3,1.6v1.3c0,1-0.3,1.6-1.3,1.6C443.1,280,442.8,279.4,442.8,278.4z
		 M444.6,278.4V277c0-0.5,0-1-0.5-1s-0.5,0.5-0.5,1v1.4c0,0.5,0,1,0.5,1S444.6,278.9,444.6,278.4z"/>
	<path d="M448,273.7h0.6l1.8,4.2v-4.2h0.7v6.3h-0.6l-1.8-4.3v4.3H448V273.7z"/>
	<path d="M452,278.4v-1.3c0-1,0.3-1.6,1.3-1.6s1.3,0.6,1.3,1.6v1.3c0,1-0.3,1.6-1.3,1.6S452,279.4,452,278.4z M453.7,278.4V277
		c0-0.5,0-1-0.5-1s-0.5,0.5-0.5,1v1.4c0,0.5,0,1,0.5,1S453.7,278.9,453.7,278.4z"/>
	<path d="M456.2,279.6v0.3h-0.8v-6.3h0.8v2.2c0.2-0.2,0.5-0.4,0.8-0.4c0.9,0,1,1.1,1,1.7v1.1c0,1-0.2,1.8-1.1,1.8
		C456.6,280,456.4,279.8,456.2,279.6z M457.2,278.2v-1.1c0-0.6-0.1-1-0.5-1c-0.2,0-0.4,0.1-0.6,0.2v2.9c0.1,0.1,0.3,0.2,0.6,0.2
		C457.2,279.4,457.2,278.9,457.2,278.2z"/>
	<path d="M458.8,275.5h0.8v0.6c0.3-0.5,0.7-0.7,1-0.7h0.1v0.9c-0.1,0-0.3-0.1-0.5-0.1c-0.3,0-0.5,0.1-0.7,0.4v3.3h-0.8v-4.4
		L458.8,275.5L458.8,275.5z"/>
	<path d="M461.2,278.2v-1c0-1.2,0.3-1.8,1.3-1.8c1.1,0,1.3,0.7,1.3,1.9v0.4H462v0.9c0,0.5,0.1,0.8,0.5,0.8s0.4-0.3,0.4-0.7v-0.3h0.8
		v0.2c0,0.9-0.3,1.4-1.3,1.4C461.5,280,461.2,279.4,461.2,278.2z M463,277.3v-0.4c0-0.5-0.1-0.9-0.5-0.9s-0.5,0.2-0.5,1v0.2
		L463,277.3L463,277.3z"/>
</g>
<g>
	<path d="M554.4,234.6h6.1v2h-3.2v3.9h2.7v2h-2.7v6.5h-2.9L554.4,234.6L554.4,234.6z"/>
	<path d="M561.8,235.1h2.7v2h-2.7V235.1z M561.8,238.8h2.7V249h-2.7V238.8z"/>
	<path d="M566.3,238.8h2.7v1c0.7-0.7,1.6-1.2,2.5-1.2c1.2,0,1.8,1,1.8,2.3v8.1h-2.7v-7.7c0-0.5-0.1-0.8-0.6-0.8
		c-0.3,0-0.6,0.2-1,0.4v8.1h-2.7V238.8z"/>
	<path d="M574.8,246.7c0-2.6,2.2-3.3,4.2-4.1v-1c0-0.7-0.1-1.1-0.7-1.1c-0.5,0-0.7,0.4-0.7,1l-0.1,0.7l-2.5-0.1
		c0.1-2.4,1.2-3.5,3.5-3.5c2.1,0,3,1.3,3,3.1v4.8c0,1.2,0.1,2,0.2,2.5h-2.4c-0.1-0.5-0.2-1.3-0.2-1.5c-0.2,0.9-0.9,1.6-2,1.6
		C575.6,249.2,574.8,247.9,574.8,246.7z M579,246.7v-2.8c-1,0.6-1.7,1.2-1.7,2.3c0,0.7,0.3,1.2,0.8,1.2
		C578.5,247.3,578.8,247,579,246.7z"/>
	<path d="M583.5,234.6h2.7V249h-2.7V234.6z"/>
</g>
<g>
	<path d="M556,251.3h0.8l1.3,6.3h-0.8L557,256h-1.3l-0.3,1.6h-0.8L556,251.3z M557,255.4l-0.5-2.8l-0.5,2.8H557z"/>
	<path d="M558.8,253.1h0.8v0.4c0.3-0.3,0.7-0.5,1.1-0.5c0.5,0,0.7,0.5,0.7,0.9v3.6h-0.8v-3.4c0-0.3-0.1-0.5-0.4-0.5
		c-0.2,0-0.4,0.1-0.6,0.3v3.6h-0.8L558.8,253.1L558.8,253.1z"/>
	<path d="M562.4,253.7h-0.5v-0.6h0.5v-0.2c0-0.9,0.2-1.3,1.1-1.3c0.1,0,0.3,0,0.4,0v0.6c-0.1,0-0.2,0-0.3,0c-0.3,0-0.4,0.2-0.4,0.6
		v0.4h1.8v4.5h-0.7v-3.9h-1v3.9h-0.8v-4H562.4z M564.3,251.6h0.8v0.9h-0.8V251.6z"/>
	<path d="M566.2,256.6v-2.9h-0.5v-0.5h0.5v-1.3h0.8v1.3h0.7v0.5H567v2.9c0,0.3,0.1,0.5,0.4,0.5c0.1,0,0.2,0,0.3,0v0.6
		c-0.2,0-0.4,0-0.6,0C566.5,257.6,566.2,257.2,566.2,256.6z"/>
	<path d="M568.3,255.8v-1c0-1.2,0.3-1.8,1.3-1.8c1.1,0,1.3,0.7,1.3,1.9v0.4h-1.8v0.9c0,0.5,0.1,0.8,0.5,0.8c0.4,0,0.4-0.3,0.4-0.7
		V256h0.8v0.2c0,0.9-0.3,1.4-1.3,1.4C568.5,257.6,568.3,257,568.3,255.8z M570,254.9v-0.4c0-0.5-0.1-0.9-0.5-0.9
		c-0.4,0-0.5,0.2-0.5,1v0.2L570,254.9L570,254.9z"/>
	<path d="M571.5,256.6c0-1.1,0.8-1.4,1.8-1.8v-0.3c0-0.5-0.1-0.8-0.4-0.8s-0.5,0.2-0.5,0.6v0.2h-0.8c0-1,0.4-1.4,1.3-1.4
		s1.2,0.5,1.2,1.4v2c0,0.4,0,0.8,0.1,1.1h-0.8c0-0.2-0.1-0.4-0.1-0.7c-0.1,0.3-0.4,0.7-0.9,0.7C571.9,257.6,571.5,257.1,571.5,256.6
		z M573.3,256.6v-1.3c-0.5,0.3-0.9,0.5-0.9,1.1c0,0.4,0.1,0.6,0.4,0.6C573,256.9,573.2,256.7,573.3,256.6z"/>
	<path d="M575.1,256.6v-2.9h-0.5v-0.5h0.5v-1.3h0.8v1.3h0.7v0.5h-0.7v2.9c0,0.3,0.1,0.5,0.4,0.5c0.1,0,0.2,0,0.3,0v0.6
		c-0.2,0-0.4,0-0.6,0C575.3,257.6,575.1,257.2,575.1,256.6z"/>
	<path d="M577.3,253.1h0.8v0.6c0.3-0.5,0.7-0.7,1-0.7h0.1v0.9c-0.1,0-0.3-0.1-0.5-0.1c-0.3,0-0.5,0.1-0.7,0.4v3.3h-0.7V253.1z"/>
	<path d="M579.6,256v-1.3c0-1,0.3-1.6,1.3-1.6s1.3,0.6,1.3,1.6v1.3c0,1-0.3,1.6-1.3,1.6C580,257.6,579.6,257,579.6,256z M581.4,256
		v-1.4c0-0.5,0-1-0.5-1s-0.5,0.5-0.5,1v1.4c0,0.5,0,1,0.5,1S581.4,256.5,581.4,256z"/>
</g>
</svg>
